<svg width="96" height="100" viewBox="0 0 96 100" fill="none" xmlns="http://www.w3.org/2000/svg">
<path d="M39.7073 48.2927V50.7317H37.2683V48.2927H39.7073ZM42.1463 48.2927V50.7317H39.7073V48.2927H42.1463ZM44.5854 48.2927V50.7317H42.1463V48.2927H44.5854ZM47.0244 48.2927V50.7317H44.5854V48.2927H47.0244ZM49.4634 48.2927V50.7317H47.0244V48.2927H49.4634ZM49.4634 45.8537V48.2927H47.0244V45.8537H49.4634ZM49.4634 43.4146V45.8537H47.0244V43.4146H49.4634ZM47.0244 43.4146V45.8537H44.5854V43.4146H47.0244ZM44.5854 43.4146V45.8537H42.1463V43.4146H44.5854ZM42.1463 43.4146V45.8537H39.7073V43.4146H42.1463ZM42.1463 45.8537V48.2927H39.7073V45.8537H42.1463ZM39.7073 45.8537V48.2927H37.2683V45.8537H39.7073ZM44.5854 45.8537V48.2927H42.1463V45.8537H44.5854ZM47.0244 45.8537V48.2927H44.5854V45.8537H47.0244ZM39.7073 43.4146V45.8537H37.2683V43.4146H39.7073ZM37.2683 43.4146V45.8537H34.8293V43.4146H37.2683ZM37.2683 40.9756V43.4146H34.8293V40.9756H37.2683ZM39.7073 40.9756V43.4146H37.2683V40.9756H39.7073ZM42.1463 40.9756V43.4146H39.7073V40.9756H42.1463ZM44.5854 40.9756V43.4146H42.1463V40.9756H44.5854ZM47.0244 40.9756V43.4146H44.5854V40.9756H47.0244ZM47.0244 38.5366V40.9756H44.5854V38.5366H47.0244ZM44.5854 38.5366V40.9756H42.1463V38.5366H44.5854ZM42.1463 38.5366V40.9756H39.7073V38.5366H42.1463ZM39.7073 38.5366V40.9756H37.2683V38.5366H39.7073ZM37.2683 38.5366V40.9756H34.8293V38.5366H37.2683ZM42.1463 36.0976V38.5366H39.7073V36.0976H42.1463ZM44.5854 36.0976V38.5366H42.1463V36.0976H44.5854ZM39.7073 36.0976V38.5366H37.2683V36.0976H39.7073ZM39.7073 33.6585V36.0976H37.2683V33.6585H39.7073ZM37.2683 33.6585V36.0976H34.8293V33.6585H37.2683ZM37.2683 36.0976V38.5366H34.8293V36.0976H37.2683ZM34.8293 36.0976V38.5366H32.3902V36.0976H34.8293ZM34.8293 33.6585V36.0976H32.3902V33.6585H34.8293ZM34.8293 38.5366V40.9756H32.3902V38.5366H34.8293ZM32.3902 38.5366V40.9756H29.9512V38.5366H32.3902ZM32.3902 40.9756V43.4146H29.9512V40.9756H32.3902ZM34.8293 40.9756V43.4146H32.3902V40.9756H34.8293ZM29.9512 40.9756V43.4146H27.5122V40.9756H29.9512ZM29.9512 38.5366V40.9756H27.5122V38.5366H29.9512ZM29.9512 36.0976V38.5366H27.5122V36.0976H29.9512ZM29.9512 33.6585V36.0976H27.5122V33.6585H29.9512ZM32.3902 33.6585V36.0976H29.9512V33.6585H32.3902ZM32.3902 36.0976V38.5366H29.9512V36.0976H32.3902ZM27.5122 33.6585V36.0976H25.0732V33.6585H27.5122ZM25.0732 33.6585V36.0976H22.6341V33.6585H25.0732ZM22.6341 33.6585V36.0976H20.1951V33.6585H22.6341ZM22.6341 36.0976V38.5366H20.1951V36.0976H22.6341ZM22.6341 38.5366V40.9756H20.1951V38.5366H22.6341ZM22.6341 40.9756V43.4146H20.1951V40.9756H22.6341ZM25.0732 40.9756V43.4146H22.6341V40.9756H25.0732ZM27.5122 40.9756V43.4146H25.0732V40.9756H27.5122ZM27.5122 38.5366V40.9756H25.0732V38.5366H27.5122ZM27.5122 36.0976V38.5366H25.0732V36.0976H27.5122ZM25.0732 36.0976V38.5366H22.6341V36.0976H25.0732ZM25.0732 38.5366V40.9756H22.6341V38.5366H25.0732ZM20.1951 38.5366V40.9756H17.7561V38.5366H20.1951ZM20.1951 36.0976V38.5366H17.7561V36.0976H20.1951ZM17.7561 36.0976V38.5366H15.3171V36.0976H17.7561ZM17.7561 38.5366V40.9756H15.3171V38.5366H17.7561ZM15.3171 38.5366V40.9756H12.878V38.5366H15.3171ZM15.3171 40.9756V43.4146H12.878V40.9756H15.3171ZM15.3171 43.4146V45.8537H12.878V43.4146H15.3171ZM17.7561 43.4146V45.8537H15.3171V43.4146H17.7561ZM17.7561 40.9756V43.4146H15.3171V40.9756H17.7561ZM20.1951 40.9756V43.4146H17.7561V40.9756H20.1951ZM20.1951 43.4146V45.8537H17.7561V43.4146H20.1951ZM22.6341 43.4146V45.8537H20.1951V43.4146H22.6341ZM25.0732 43.4146V45.8537H22.6341V43.4146H25.0732ZM12.878 43.4146V45.8537H10.439V43.4146H12.878ZM12.878 45.8537V48.2927H10.439V45.8537H12.878ZM12.878 48.2927V50.7317H10.439V48.2927H12.878ZM12.878 50.7317V53.1707H10.439V50.7317H12.878ZM12.878 53.1707V55.6098H10.439V53.1707H12.878ZM12.878 55.6098V58.0488H10.439V55.6098H12.878ZM12.878 58.0488V60.4878H10.439V58.0488H12.878ZM12.878 60.4878V62.9268H10.439V60.4878H12.878ZM12.878 62.9268V65.3659H10.439V62.9268H12.878ZM12.878 65.3659V67.8049H10.439V65.3659H12.878ZM15.3171 65.3659V67.8049H12.878V65.3659H15.3171ZM15.3171 67.8049V70.2439H12.878V67.8049H15.3171ZM12.878 67.8049V70.2439H10.439V67.8049H12.878ZM17.7561 67.8049V70.2439H15.3171V67.8049H17.7561ZM20.1951 67.8049V70.2439H17.7561V67.8049H20.1951ZM22.6341 67.8049V70.2439H20.1951V67.8049H22.6341ZM25.0732 67.8049V70.2439H22.6341V67.8049H25.0732ZM22.6341 65.3659V67.8049H20.1951V65.3659H22.6341ZM22.6341 62.9268V65.3659H20.1951V62.9268H22.6341ZM22.6341 60.4878V62.9268H20.1951V60.4878H22.6341ZM22.6341 58.0488V60.4878H20.1951V58.0488H22.6341ZM22.6341 55.6098V58.0488H20.1951V55.6098H22.6341ZM22.6341 53.1707V55.6098H20.1951V53.1707H22.6341ZM22.6341 50.7317V53.1707H20.1951V50.7317H22.6341ZM22.6341 48.2927V50.7317H20.1951V48.2927H22.6341ZM22.6341 45.8537V48.2927H20.1951V45.8537H22.6341ZM20.1951 45.8537V48.2927H17.7561V45.8537H20.1951ZM17.7561 45.8537V48.2927H15.3171V45.8537H17.7561ZM15.3171 45.8537V48.2927H12.878V45.8537H15.3171ZM15.3171 48.2927V50.7317H12.878V48.2927H15.3171ZM15.3171 50.7317V53.1707H12.878V50.7317H15.3171ZM15.3171 53.1707V55.6098H12.878V53.1707H15.3171ZM15.3171 55.6098V58.0488H12.878V55.6098H15.3171ZM15.3171 58.0488V60.4878H12.878V58.0488H15.3171ZM15.3171 60.4878V62.9268H12.878V60.4878H15.3171ZM15.3171 62.9268V65.3659H12.878V62.9268H15.3171ZM17.7561 65.3659V67.8049H15.3171V65.3659H17.7561ZM20.1951 65.3659V67.8049H17.7561V65.3659H20.1951ZM20.1951 62.9268V65.3659H17.7561V62.9268H20.1951ZM20.1951 60.4878V62.9268H17.7561V60.4878H20.1951ZM20.1951 58.0488V60.4878H17.7561V58.0488H20.1951ZM20.1951 55.6098V58.0488H17.7561V55.6098H20.1951ZM17.7561 55.6098V58.0488H15.3171V55.6098H17.7561ZM17.7561 53.1707V55.6098H15.3171V53.1707H17.7561ZM17.7561 50.7317V53.1707H15.3171V50.7317H17.7561ZM17.7561 48.2927V50.7317H15.3171V48.2927H17.7561ZM20.1951 48.2927V50.7317H17.7561V48.2927H20.1951ZM20.1951 50.7317V53.1707H17.7561V50.7317H20.1951ZM20.1951 53.1707V55.6098H17.7561V53.1707H20.1951ZM17.7561 60.4878V62.9268H15.3171V60.4878H17.7561ZM17.7561 62.9268V65.3659H15.3171V62.9268H17.7561ZM17.7561 58.0488V60.4878H15.3171V58.0488H17.7561ZM39.7073 65.3659V67.8049H37.2683V65.3659H39.7073ZM42.1463 65.3659V67.8049H39.7073V65.3659H42.1463ZM44.5854 65.3659V67.8049H42.1463V65.3659H44.5854ZM47.0244 65.3659V67.8049H44.5854V65.3659H47.0244ZM49.4634 65.3659V67.8049H47.0244V65.3659H49.4634ZM49.4634 67.8049V70.2439H47.0244V67.8049H49.4634ZM47.0244 67.8049V70.2439H44.5854V67.8049H47.0244ZM44.5854 67.8049V70.2439H42.1463V67.8049H44.5854ZM42.1463 67.8049V70.2439H39.7073V67.8049H42.1463ZM39.7073 67.8049V70.2439H37.2683V67.8049H39.7073ZM37.2683 67.8049V70.2439H34.8293V67.8049H37.2683ZM37.2683 70.2439V72.6829H34.8293V70.2439H37.2683ZM39.7073 70.2439V72.6829H37.2683V70.2439H39.7073ZM42.1463 70.2439V72.6829H39.7073V70.2439H42.1463ZM44.5854 70.2439V72.6829H42.1463V70.2439H44.5854ZM44.5854 72.6829V75.122H42.1463V72.6829H44.5854ZM47.0244 72.6829V75.122H44.5854V72.6829H47.0244ZM47.0244 70.2439V72.6829H44.5854V70.2439H47.0244ZM44.5854 75.122V77.561H42.1463V75.122H44.5854ZM42.1463 75.122V77.561H39.7073V75.122H42.1463ZM42.1463 72.6829V75.122H39.7073V72.6829H42.1463ZM39.7073 72.6829V75.122H37.2683V72.6829H39.7073ZM39.7073 75.122V77.561H37.2683V75.122H39.7073ZM39.7073 77.561V80H37.2683V77.561H39.7073ZM37.2683 77.561V80H34.8293V77.561H37.2683ZM34.8293 77.561V80H32.3902V77.561H34.8293ZM32.3902 77.561V80H29.9512V77.561H32.3902ZM29.9512 77.561V80H27.5122V77.561H29.9512ZM27.5122 77.561V80H25.0732V77.561H27.5122ZM25.0732 77.561V80H22.6341V77.561H25.0732ZM22.6341 77.561V80H20.1951V77.561H22.6341ZM25.0732 75.122V77.561H22.6341V75.122H25.0732ZM27.5122 75.122V77.561H25.0732V75.122H27.5122ZM29.9512 75.122V77.561H27.5122V75.122H29.9512ZM32.3902 75.122V77.561H29.9512V75.122H32.3902ZM34.8293 75.122V77.561H32.3902V75.122H34.8293ZM37.2683 75.122V77.561H34.8293V75.122H37.2683ZM37.2683 72.6829V75.122H34.8293V72.6829H37.2683ZM34.8293 72.6829V75.122H32.3902V72.6829H34.8293ZM32.3902 72.6829V75.122H29.9512V72.6829H32.3902ZM29.9512 72.6829V75.122H27.5122V72.6829H29.9512ZM27.5122 72.6829V75.122H25.0732V72.6829H27.5122ZM25.0732 72.6829V75.122H22.6341V72.6829H25.0732ZM22.6341 75.122V77.561H20.1951V75.122H22.6341ZM20.1951 75.122V77.561H17.7561V75.122H20.1951ZM17.7561 75.122V77.561H15.3171V75.122H17.7561ZM17.7561 72.6829V75.122H15.3171V72.6829H17.7561ZM15.3171 72.6829V75.122H12.878V72.6829H15.3171ZM15.3171 70.2439V72.6829H12.878V70.2439H15.3171ZM17.7561 70.2439V72.6829H15.3171V70.2439H17.7561ZM20.1951 70.2439V72.6829H17.7561V70.2439H20.1951ZM22.6341 70.2439V72.6829H20.1951V70.2439H22.6341ZM25.0732 70.2439V72.6829H22.6341V70.2439H25.0732ZM27.5122 70.2439V72.6829H25.0732V70.2439H27.5122ZM29.9512 70.2439V72.6829H27.5122V70.2439H29.9512ZM32.3902 70.2439V72.6829H29.9512V70.2439H32.3902ZM34.8293 70.2439V72.6829H32.3902V70.2439H34.8293ZM22.6341 72.6829V75.122H20.1951V72.6829H22.6341ZM20.1951 72.6829V75.122H17.7561V72.6829H20.1951ZM49.4634 50.7317V53.1707H47.0244V50.7317H49.4634ZM47.0244 50.7317V53.1707H44.5854V50.7317H47.0244ZM44.5854 50.7317V53.1707H42.1463V50.7317H44.5854ZM42.1463 50.7317V53.1707H39.7073V50.7317H42.1463ZM39.7073 50.7317V53.1707H37.2683V50.7317H39.7073ZM49.4634 53.1707V55.6098H47.0244V53.1707H49.4634ZM44.5854 53.1707V55.6098H42.1463V53.1707H44.5854ZM42.1463 53.1707V55.6098H39.7073V53.1707H42.1463ZM37.2683 53.1707V55.6098H34.8293V53.1707H37.2683ZM34.8293 53.1707V55.6098H32.3902V53.1707H34.8293ZM32.3902 53.1707V55.6098H29.9512V53.1707H32.3902ZM29.9512 53.1707V55.6098H27.5122V53.1707H29.9512ZM27.5122 53.1707V55.6098H25.0732V53.1707H27.5122ZM25.0732 53.1707V55.6098H22.6341V53.1707H25.0732ZM39.7073 53.1707V55.6098H37.2683V53.1707H39.7073ZM47.0244 53.1707V55.6098H44.5854V53.1707H47.0244ZM49.4634 55.6098V58.0488H47.0244V55.6098H49.4634ZM47.0244 55.6098V58.0488H44.5854V55.6098H47.0244ZM44.5854 55.6098V58.0488H42.1463V55.6098H44.5854ZM42.1463 55.6098V58.0488H39.7073V55.6098H42.1463ZM39.7073 55.6098V58.0488H37.2683V55.6098H39.7073ZM37.2683 55.6098V58.0488H34.8293V55.6098H37.2683ZM34.8293 55.6098V58.0488H32.3902V55.6098H34.8293ZM32.3902 55.6098V58.0488H29.9512V55.6098H32.3902ZM29.9512 55.6098V58.0488H27.5122V55.6098H29.9512ZM27.5122 55.6098V58.0488H25.0732V55.6098H27.5122ZM25.0732 55.6098V58.0488H22.6341V55.6098H25.0732ZM25.0732 58.0488V60.4878H22.6341V58.0488H25.0732ZM27.5122 58.0488V60.4878H25.0732V58.0488H27.5122ZM29.9512 58.0488V60.4878H27.5122V58.0488H29.9512ZM34.8293 58.0488V60.4878H32.3902V58.0488H34.8293ZM37.2683 58.0488V60.4878H34.8293V58.0488H37.2683ZM39.7073 58.0488V60.4878H37.2683V58.0488H39.7073ZM42.1463 58.0488V60.4878H39.7073V58.0488H42.1463ZM44.5854 58.0488V60.4878H42.1463V58.0488H44.5854ZM47.0244 58.0488V60.4878H44.5854V58.0488H47.0244ZM49.4634 58.0488V60.4878H47.0244V58.0488H49.4634ZM32.3902 58.0488V60.4878H29.9512V58.0488H32.3902ZM83.6526 48.2927V50.7317H81.2136V48.2927H83.6526ZM86.0917 48.2927V50.7317H83.6526V48.2927H86.0917ZM88.5307 48.2927V50.7317H86.0917V48.2927H88.5307ZM90.9697 48.2927V50.7317H88.5307V48.2927H90.9697ZM93.4087 48.2927V50.7317H90.9697V48.2927H93.4087ZM93.4087 45.8537V48.2927H90.9697V45.8537H93.4087ZM93.4087 43.4146V45.8537H90.9697V43.4146H93.4087ZM90.9697 43.4146V45.8537H88.5307V43.4146H90.9697ZM88.5307 43.4146V45.8537H86.0917V43.4146H88.5307ZM86.0917 43.4146V45.8537H83.6526V43.4146H86.0917ZM86.0917 45.8537V48.2927H83.6526V45.8537H86.0917ZM83.6526 45.8537V48.2927H81.2136V45.8537H83.6526ZM88.5307 45.8537V48.2927H86.0917V45.8537H88.5307ZM90.9697 45.8537V48.2927H88.5307V45.8537H90.9697ZM83.6526 43.4146V45.8537H81.2136V43.4146H83.6526ZM81.2136 43.4146V45.8537H78.7746V43.4146H81.2136ZM81.2136 40.9756V43.4146H78.7746V40.9756H81.2136ZM83.6526 40.9756V43.4146H81.2136V40.9756H83.6526ZM86.0917 40.9756V43.4146H83.6526V40.9756H86.0917ZM88.5307 40.9756V43.4146H86.0917V40.9756H88.5307ZM90.9697 40.9756V43.4146H88.5307V40.9756H90.9697ZM90.9697 38.5366V40.9756H88.5307V38.5366H90.9697ZM88.5307 38.5366V40.9756H86.0917V38.5366H88.5307ZM86.0917 38.5366V40.9756H83.6526V38.5366H86.0917ZM83.6526 38.5366V40.9756H81.2136V38.5366H83.6526ZM81.2136 38.5366V40.9756H78.7746V38.5366H81.2136ZM86.0917 36.0976V38.5366H83.6526V36.0976H86.0917ZM88.5307 36.0976V38.5366H86.0917V36.0976H88.5307ZM83.6526 36.0976V38.5366H81.2136V36.0976H83.6526ZM83.6526 33.6585V36.0976H81.2136V33.6585H83.6526ZM81.2136 33.6585V36.0976H78.7746V33.6585H81.2136ZM81.2136 36.0976V38.5366H78.7746V36.0976H81.2136ZM78.7746 36.0976V38.5366H76.3356V36.0976H78.7746ZM78.7746 33.6585V36.0976H76.3356V33.6585H78.7746ZM78.7746 38.5366V40.9756H76.3356V38.5366H78.7746ZM76.3356 38.5366V40.9756H73.8965V38.5366H76.3356ZM76.3356 40.9756V43.4146H73.8965V40.9756H76.3356ZM78.7746 40.9756V43.4146H76.3356V40.9756H78.7746ZM73.8965 40.9756V43.4146H71.4575V40.9756H73.8965ZM73.8965 38.5366V40.9756H71.4575V38.5366H73.8965ZM73.8965 36.0976V38.5366H71.4575V36.0976H73.8965ZM73.8965 33.6585V36.0976H71.4575V33.6585H73.8965ZM76.3356 33.6585V36.0976H73.8965V33.6585H76.3356ZM76.3356 36.0976V38.5366H73.8965V36.0976H76.3356ZM71.4575 33.6585V36.0976H69.0185V33.6585H71.4575ZM69.0185 33.6585V36.0976H66.5795V33.6585H69.0185ZM66.5795 33.6585V36.0976H64.1404V33.6585H66.5795ZM66.5795 36.0976V38.5366H64.1404V36.0976H66.5795ZM66.5795 38.5366V40.9756H64.1404V38.5366H66.5795ZM66.5795 40.9756V43.4146H64.1404V40.9756H66.5795ZM69.0185 40.9756V43.4146H66.5795V40.9756H69.0185ZM71.4575 40.9756V43.4146H69.0185V40.9756H71.4575ZM71.4575 38.5366V40.9756H69.0185V38.5366H71.4575ZM71.4575 36.0976V38.5366H69.0185V36.0976H71.4575ZM69.0185 36.0976V38.5366H66.5795V36.0976H69.0185ZM69.0185 38.5366V40.9756H66.5795V38.5366H69.0185ZM64.1404 38.5366V40.9756H61.7014V38.5366H64.1404ZM64.1404 36.0976V38.5366H61.7014V36.0976H64.1404ZM61.7014 36.0976V38.5366H59.2624V36.0976H61.7014ZM61.7014 38.5366V40.9756H59.2624V38.5366H61.7014ZM59.2624 38.5366V40.9756H56.8234V38.5366H59.2624ZM59.2624 40.9756V43.4146H56.8234V40.9756H59.2624ZM59.2624 43.4146V45.8537H56.8234V43.4146H59.2624ZM61.7014 43.4146V45.8537H59.2624V43.4146H61.7014ZM61.7014 40.9756V43.4146H59.2624V40.9756H61.7014ZM64.1404 40.9756V43.4146H61.7014V40.9756H64.1404ZM64.1404 43.4146V45.8537H61.7014V43.4146H64.1404ZM66.5795 43.4146V45.8537H64.1404V43.4146H66.5795ZM69.0185 43.4146V45.8537H66.5795V43.4146H69.0185ZM56.8234 43.4146V45.8537H54.3843V43.4146H56.8234ZM56.8234 45.8537V48.2927H54.3843V45.8537H56.8234ZM56.8234 48.2927V50.7317H54.3843V48.2927H56.8234ZM56.8234 50.7317V53.1707H54.3843V50.7317H56.8234ZM56.8234 53.1707V55.6098H54.3843V53.1707H56.8234ZM56.8234 55.6098V58.0488H54.3843V55.6098H56.8234ZM56.8234 58.0488V60.4878H54.3843V58.0488H56.8234ZM56.8234 60.4878V62.9268H54.3843V60.4878H56.8234ZM56.8234 62.9268V65.3659H54.3843V62.9268H56.8234ZM56.8234 65.3659V67.8049H54.3843V65.3659H56.8234ZM59.2624 65.3659V67.8049H56.8234V65.3659H59.2624ZM59.2624 67.8049V70.2439H56.8234V67.8049H59.2624ZM56.8234 67.8049V70.2439H54.3843V67.8049H56.8234ZM61.7014 67.8049V70.2439H59.2624V67.8049H61.7014ZM64.1404 67.8049V70.2439H61.7014V67.8049H64.1404ZM66.5795 67.8049V70.2439H64.1404V67.8049H66.5795ZM69.0185 67.8049V70.2439H66.5795V67.8049H69.0185ZM66.5795 65.3659V67.8049H64.1404V65.3659H66.5795ZM66.5795 62.9268V65.3659H64.1404V62.9268H66.5795ZM66.5795 60.4878V62.9268H64.1404V60.4878H66.5795ZM66.5795 58.0488V60.4878H64.1404V58.0488H66.5795ZM66.5795 55.6098V58.0488H64.1404V55.6098H66.5795ZM66.5795 53.1707V55.6098H64.1404V53.1707H66.5795ZM66.5795 50.7317V53.1707H64.1404V50.7317H66.5795ZM66.5795 48.2927V50.7317H64.1404V48.2927H66.5795ZM66.5795 45.8537V48.2927H64.1404V45.8537H66.5795ZM64.1404 45.8537V48.2927H61.7014V45.8537H64.1404ZM61.7014 45.8537V48.2927H59.2624V45.8537H61.7014ZM59.2624 45.8537V48.2927H56.8234V45.8537H59.2624ZM59.2624 48.2927V50.7317H56.8234V48.2927H59.2624ZM59.2624 50.7317V53.1707H56.8234V50.7317H59.2624ZM59.2624 53.1707V55.6098H56.8234V53.1707H59.2624ZM59.2624 55.6098V58.0488H56.8234V55.6098H59.2624ZM59.2624 58.0488V60.4878H56.8234V58.0488H59.2624ZM59.2624 60.4878V62.9268H56.8234V60.4878H59.2624ZM59.2624 62.9268V65.3659H56.8234V62.9268H59.2624ZM61.7014 65.3659V67.8049H59.2624V65.3659H61.7014ZM64.1404 65.3659V67.8049H61.7014V65.3659H64.1404ZM64.1404 62.9268V65.3659H61.7014V62.9268H64.1404ZM64.1404 60.4878V62.9268H61.7014V60.4878H64.1404ZM64.1404 58.0488V60.4878H61.7014V58.0488H64.1404ZM64.1404 55.6098V58.0488H61.7014V55.6098H64.1404ZM61.7014 55.6098V58.0488H59.2624V55.6098H61.7014ZM61.7014 53.1707V55.6098H59.2624V53.1707H61.7014ZM61.7014 50.7317V53.1707H59.2624V50.7317H61.7014ZM61.7014 48.2927V50.7317H59.2624V48.2927H61.7014ZM64.1404 48.2927V50.7317H61.7014V48.2927H64.1404ZM64.1404 50.7317V53.1707H61.7014V50.7317H64.1404ZM64.1404 53.1707V55.6098H61.7014V53.1707H64.1404ZM61.7014 60.4878V62.9268H59.2624V60.4878H61.7014ZM61.7014 62.9268V65.3659H59.2624V62.9268H61.7014ZM61.7014 58.0488V60.4878H59.2624V58.0488H61.7014ZM83.6526 65.3659V67.8049H81.2136V65.3659H83.6526ZM86.0917 65.3659V67.8049H83.6526V65.3659H86.0917ZM88.5307 65.3659V67.8049H86.0917V65.3659H88.5307ZM90.9697 65.3659V67.8049H88.5307V65.3659H90.9697ZM93.4087 65.3659V67.8049H90.9697V65.3659H93.4087ZM93.4087 67.8049V70.2439H90.9697V67.8049H93.4087ZM90.9697 67.8049V70.2439H88.5307V67.8049H90.9697ZM88.5307 67.8049V70.2439H86.0917V67.8049H88.5307ZM86.0917 67.8049V70.2439H83.6526V67.8049H86.0917ZM83.6526 67.8049V70.2439H81.2136V67.8049H83.6526ZM81.2136 67.8049V70.2439H78.7746V67.8049H81.2136ZM81.2136 70.2439V72.6829H78.7746V70.2439H81.2136ZM83.6526 70.2439V72.6829H81.2136V70.2439H83.6526ZM86.0917 70.2439V72.6829H83.6526V70.2439H86.0917ZM88.5307 70.2439V72.6829H86.0917V70.2439H88.5307ZM88.5307 72.6829V75.122H86.0917V72.6829H88.5307ZM90.9697 72.6829V75.122H88.5307V72.6829H90.9697ZM90.9697 70.2439V72.6829H88.5307V70.2439H90.9697ZM88.5307 75.122V77.561H86.0917V75.122H88.5307ZM86.0917 75.122V77.561H83.6526V75.122H86.0917ZM86.0917 72.6829V75.122H83.6526V72.6829H86.0917ZM83.6526 72.6829V75.122H81.2136V72.6829H83.6526ZM83.6526 75.122V77.561H81.2136V75.122H83.6526ZM83.6526 77.561V80H81.2136V77.561H83.6526ZM81.2136 77.561V80H78.7746V77.561H81.2136ZM78.7746 77.561V80H76.3356V77.561H78.7746ZM76.3356 77.561V80H73.8965V77.561H76.3356ZM73.8965 77.561V80H71.4575V77.561H73.8965ZM71.4575 77.561V80H69.0185V77.561H71.4575ZM69.0185 77.561V80H66.5795V77.561H69.0185ZM66.5795 77.561V80H64.1404V77.561H66.5795ZM69.0185 75.122V77.561H66.5795V75.122H69.0185ZM71.4575 75.122V77.561H69.0185V75.122H71.4575ZM73.8965 75.122V77.561H71.4575V75.122H73.8965ZM76.3356 75.122V77.561H73.8965V75.122H76.3356ZM78.7746 75.122V77.561H76.3356V75.122H78.7746ZM81.2136 75.122V77.561H78.7746V75.122H81.2136ZM81.2136 72.6829V75.122H78.7746V72.6829H81.2136ZM78.7746 72.6829V75.122H76.3356V72.6829H78.7746ZM76.3356 72.6829V75.122H73.8965V72.6829H76.3356ZM73.8965 72.6829V75.122H71.4575V72.6829H73.8965ZM71.4575 72.6829V75.122H69.0185V72.6829H71.4575ZM69.0185 72.6829V75.122H66.5795V72.6829H69.0185ZM66.5795 75.122V77.561H64.1404V75.122H66.5795ZM64.1404 75.122V77.561H61.7014V75.122H64.1404ZM61.7014 75.122V77.561H59.2624V75.122H61.7014ZM61.7014 72.6829V75.122H59.2624V72.6829H61.7014ZM59.2624 72.6829V75.122H56.8234V72.6829H59.2624ZM59.2624 70.2439V72.6829H56.8234V70.2439H59.2624ZM61.7014 70.2439V72.6829H59.2624V70.2439H61.7014ZM64.1404 70.2439V72.6829H61.7014V70.2439H64.1404ZM66.5795 70.2439V72.6829H64.1404V70.2439H66.5795ZM69.0185 70.2439V72.6829H66.5795V70.2439H69.0185ZM71.4575 70.2439V72.6829H69.0185V70.2439H71.4575ZM73.8965 70.2439V72.6829H71.4575V70.2439H73.8965ZM76.3356 70.2439V72.6829H73.8965V70.2439H76.3356ZM78.7746 70.2439V72.6829H76.3356V70.2439H78.7746ZM66.5795 72.6829V75.122H64.1404V72.6829H66.5795ZM64.1404 72.6829V75.122H61.7014V72.6829H64.1404ZM93.4087 50.7317V53.1707H90.9697V50.7317H93.4087ZM90.9697 50.7317V53.1707H88.5307V50.7317H90.9697ZM88.5307 50.7317V53.1707H86.0917V50.7317H88.5307ZM86.0917 50.7317V53.1707H83.6526V50.7317H86.0917ZM83.6526 50.7317V53.1707H81.2136V50.7317H83.6526ZM93.4087 53.1707V55.6098H90.9697V53.1707H93.4087ZM88.5307 53.1707V55.6098H86.0917V53.1707H88.5307ZM86.0917 53.1707V55.6098H83.6526V53.1707H86.0917ZM81.2136 53.1707V55.6098H78.7746V53.1707H81.2136ZM78.7746 53.1707V55.6098H76.3356V53.1707H78.7746ZM76.3356 53.1707V55.6098H73.8965V53.1707H76.3356ZM73.8965 53.1707V55.6098H71.4575V53.1707H73.8965ZM71.4575 53.1707V55.6098H69.0185V53.1707H71.4575ZM69.0185 53.1707V55.6098H66.5795V53.1707H69.0185ZM83.6526 53.1707V55.6098H81.2136V53.1707H83.6526ZM90.9697 53.1707V55.6098H88.5307V53.1707H90.9697ZM93.4087 55.6098V58.0488H90.9697V55.6098H93.4087ZM90.9697 55.6098V58.0488H88.5307V55.6098H90.9697ZM88.5307 55.6098V58.0488H86.0917V55.6098H88.5307ZM86.0917 55.6098V58.0488H83.6526V55.6098H86.0917ZM83.6526 55.6098V58.0488H81.2136V55.6098H83.6526ZM81.2136 55.6098V58.0488H78.7746V55.6098H81.2136ZM78.7746 55.6098V58.0488H76.3356V55.6098H78.7746ZM76.3356 55.6098V58.0488H73.8965V55.6098H76.3356ZM73.8965 55.6098V58.0488H71.4575V55.6098H73.8965ZM71.4575 55.6098V58.0488H69.0185V55.6098H71.4575ZM69.0185 55.6098V58.0488H66.5795V55.6098H69.0185ZM69.0185 58.0488V60.4878H66.5795V58.0488H69.0185ZM71.4575 58.0488V60.4878H69.0185V58.0488H71.4575ZM73.8965 58.0488V60.4878H71.4575V58.0488H73.8965ZM78.7746 58.0488V60.4878H76.3356V58.0488H78.7746ZM81.2136 58.0488V60.4878H78.7746V58.0488H81.2136ZM83.6526 58.0488V60.4878H81.2136V58.0488H83.6526ZM86.0917 58.0488V60.4878H83.6526V58.0488H86.0917ZM88.5307 58.0488V60.4878H86.0917V58.0488H88.5307ZM90.9697 58.0488V60.4878H88.5307V58.0488H90.9697ZM93.4087 58.0488V60.4878H90.9697V58.0488H93.4087ZM76.3356 58.0488V60.4878H73.8965V58.0488H76.3356Z" fill="#4F9BA1"/>
<rect x="5" y="56" width="20" height="3" fill="#4F9BA1"/>
<rect x="37" y="56" width="20" height="3" fill="#4F9BA1"/>
<g clip-path="url(#clip0_16_1008)">
<path d="M0.631579 58.75H0V63.9444H0.631579V58.75Z" fill="#4F9BA1"/>
<path d="M3.78954 59.0557H3.15796V63.9446H3.78954V59.0557Z" fill="#4F9BA1"/>
<path d="M4.42113 63.3333H3.78955V63.9444H4.42113V63.3333Z" fill="#4F9BA1"/>
<path d="M4.42113 59.0557H3.78955V59.6668H4.42113V59.0557Z" fill="#4F9BA1"/>
<path d="M1.26317 57.2222H0.631592V65.4722H1.26317V57.2222Z" fill="#4F9BA1"/>
<path d="M3.15792 56.6111H1.26318V66.3889H3.15792V56.6111Z" fill="#4F9BA1"/>
<path d="M5.99994 56H2.84204V59.0556H5.99994V56Z" fill="#4F9BA1"/>
<path d="M5.99994 63.9443H2.84204V66.9999H5.99994V63.9443Z" fill="#4F9BA1"/>
</g>
<defs>
<clipPath id="clip0_16_1008">
<rect width="6" height="11" fill="white" transform="translate(0 56)"/>
</clipPath>
</defs>
</svg>
