<svg width="94" height="47" viewBox="0 0 94 47" fill="none" xmlns="http://www.w3.org/2000/svg">
<path d="M21.5765 8.19263H9V37.0825H21.5765V8.19263Z" fill="#4F9BA1"/>
<path d="M38.9236 0H18.9746V9.91743H38.9236V0Z" fill="#4F9BA1"/>
<path d="M43.694 2.58716H33.7195V12.5046H43.694V2.58716Z" fill="#4F9BA1"/>
<path d="M46.296 4.74316H36.3215V14.6606H46.296V4.74316Z" fill="#4F9BA1"/>
<path d="M24.1786 2.58716H14.2041V12.5046H24.1786V2.58716Z" fill="#4F9BA1"/>
<path d="M20.7091 5.17432H10.7346V15.0917H20.7091V5.17432Z" fill="#4F9BA1"/>
<path d="M21.5765 32.3394H11.6021V42.2568H21.5765V32.3394Z" fill="#4F9BA1"/>
<path d="M46.296 32.3394H36.3215V42.2568H46.296V32.3394Z" fill="#4F9BA1"/>
<path d="M48.8981 31.9082H38.9236V37.0825H48.8981V31.9082Z" fill="#4F9BA1"/>
<path d="M49 29H39V34H49V29Z" fill="#4F9BA1"/>
<path d="M43.694 34.4954H33.7195V39.6697H43.694V34.4954Z" fill="#4F9BA1"/>
<path d="M23.745 34.4954H13.7705V39.6697H23.745V34.4954Z" fill="#4F9BA1"/>
<path d="M24.1786 39.2385H14.2041V44.4128H24.1786V39.2385Z" fill="#4F9BA1"/>
<path d="M48.8981 9.48633H36.3215V25.8716H48.8981V9.48633Z" fill="#4F9BA1"/>
<path d="M54.1022 22.4221H18.9746V25.8717H54.1022V22.4221Z" fill="#4F9BA1"/>
<path d="M38.9236 37.0825H18.9746V47H38.9236V37.0825Z" fill="#4F9BA1"/>
<path d="M43.6939 37.0825H23.7449V47H43.6939V37.0825Z" fill="#4F9BA1"/>
<path d="M66.6786 8.19263H54.1021V37.0825H66.6786V8.19263Z" fill="#4F9BA1"/>
<path d="M84.0254 0H64.0764V9.91743H84.0254V0Z" fill="#4F9BA1"/>
<path d="M88.796 2.58716H78.8215V12.5046H88.796V2.58716Z" fill="#4F9BA1"/>
<path d="M91.3981 4.74316H81.4236V14.6606H91.3981V4.74316Z" fill="#4F9BA1"/>
<path d="M69.2806 2.58716H59.3062V12.5046H69.2806V2.58716Z" fill="#4F9BA1"/>
<path d="M65.8112 5.17432H55.8367V15.0917H65.8112V5.17432Z" fill="#4F9BA1"/>
<path d="M66.6786 32.3394H56.7041V42.2568H66.6786V32.3394Z" fill="#4F9BA1"/>
<path d="M91.3981 32.3394H81.4236V42.2568H91.3981V32.3394Z" fill="#4F9BA1"/>
<path d="M93.9999 31.9082H84.0254V37.0825H93.9999V31.9082Z" fill="#4F9BA1"/>
<path d="M93.9999 28.4587H84.0254V33.6331H93.9999V28.4587Z" fill="#4F9BA1"/>
<path d="M88.796 34.4954H78.8215V39.6697H88.796V34.4954Z" fill="#4F9BA1"/>
<path d="M68.847 34.4954H58.8726V39.6697H68.847V34.4954Z" fill="#4F9BA1"/>
<path d="M69.2806 39.2385H59.3062V44.4128H69.2806V39.2385Z" fill="#4F9BA1"/>
<path d="M94 9H81V25H94V9Z" fill="#4F9BA1"/>
<path d="M93.9999 22.8533H64.0764V25.4404H93.9999V22.8533Z" fill="#4F9BA1"/>
<path d="M84.0254 37.0825H64.0764V47H84.0254V37.0825Z" fill="#4F9BA1"/>
<path d="M88.7959 37.0825H68.8469V47H88.7959V37.0825Z" fill="#4F9BA1"/>
<rect x="4.80005" y="23" width="19.2" height="2.88" fill="#4F9BA1"/>
<g clip-path="url(#clip0_25_78)">
<path d="M0.586667 25.6399H0V30.6266H0.586667V25.6399Z" fill="#4F9BA1"/>
<path d="M3.52002 25.9333H2.93335V30.6267H3.52002V25.9333Z" fill="#4F9BA1"/>
<path d="M4.10669 30.04H3.52002V30.6267H4.10669V30.04Z" fill="#4F9BA1"/>
<path d="M4.10669 25.9333H3.52002V26.52H4.10669V25.9333Z" fill="#4F9BA1"/>
<path d="M1.17334 24.1733H0.58667V32.0933H1.17334V24.1733Z" fill="#4F9BA1"/>
<path d="M2.93334 23.5867H1.17334V32.9733H2.93334V23.5867Z" fill="#4F9BA1"/>
<path d="M5.57323 23H2.63989V25.9333H5.57323V23Z" fill="#4F9BA1"/>
<path d="M5.57323 30.6267H2.63989V33.56H5.57323V30.6267Z" fill="#4F9BA1"/>
</g>
<defs>
<clipPath id="clip0_25_78">
<rect width="5.57333" height="10.56" fill="white" transform="translate(0 23)"/>
</clipPath>
</defs>
</svg>
