<svg width="272" height="100" viewBox="0 0 272 100" fill="none" xmlns="http://www.w3.org/2000/svg">
<path d="M117.707 48.2927V50.7317H115.268V48.2927H117.707ZM120.146 48.2927V50.7317H117.707V48.2927H120.146ZM122.585 48.2927V50.7317H120.146V48.2927H122.585ZM125.024 48.2927V50.7317H122.585V48.2927H125.024ZM127.463 48.2927V50.7317H125.024V48.2927H127.463ZM127.463 45.8537V48.2927H125.024V45.8537H127.463ZM127.463 43.4146V45.8537H125.024V43.4146H127.463ZM125.024 43.4146V45.8537H122.585V43.4146H125.024ZM122.585 43.4146V45.8537H120.146V43.4146H122.585ZM120.146 43.4146V45.8537H117.707V43.4146H120.146ZM120.146 45.8537V48.2927H117.707V45.8537H120.146ZM117.707 45.8537V48.2927H115.268V45.8537H117.707ZM122.585 45.8537V48.2927H120.146V45.8537H122.585ZM125.024 45.8537V48.2927H122.585V45.8537H125.024ZM117.707 43.4146V45.8537H115.268V43.4146H117.707ZM115.268 43.4146V45.8537H112.829V43.4146H115.268ZM115.268 40.9756V43.4146H112.829V40.9756H115.268ZM117.707 40.9756V43.4146H115.268V40.9756H117.707ZM120.146 40.9756V43.4146H117.707V40.9756H120.146ZM122.585 40.9756V43.4146H120.146V40.9756H122.585ZM125.024 40.9756V43.4146H122.585V40.9756H125.024ZM125.024 38.5366V40.9756H122.585V38.5366H125.024ZM122.585 38.5366V40.9756H120.146V38.5366H122.585ZM120.146 38.5366V40.9756H117.707V38.5366H120.146ZM117.707 38.5366V40.9756H115.268V38.5366H117.707ZM115.268 38.5366V40.9756H112.829V38.5366H115.268ZM120.146 36.0976V38.5366H117.707V36.0976H120.146ZM122.585 36.0976V38.5366H120.146V36.0976H122.585ZM117.707 36.0976V38.5366H115.268V36.0976H117.707ZM117.707 33.6585V36.0976H115.268V33.6585H117.707ZM115.268 33.6585V36.0976H112.829V33.6585H115.268ZM115.268 36.0976V38.5366H112.829V36.0976H115.268ZM112.829 36.0976V38.5366H110.39V36.0976H112.829ZM112.829 33.6585V36.0976H110.39V33.6585H112.829ZM112.829 38.5366V40.9756H110.39V38.5366H112.829ZM110.39 38.5366V40.9756H107.951V38.5366H110.39ZM110.39 40.9756V43.4146H107.951V40.9756H110.39ZM112.829 40.9756V43.4146H110.39V40.9756H112.829ZM107.951 40.9756V43.4146H105.512V40.9756H107.951ZM107.951 38.5366V40.9756H105.512V38.5366H107.951ZM107.951 36.0976V38.5366H105.512V36.0976H107.951ZM107.951 33.6585V36.0976H105.512V33.6585H107.951ZM110.39 33.6585V36.0976H107.951V33.6585H110.39ZM110.39 36.0976V38.5366H107.951V36.0976H110.39ZM105.512 33.6585V36.0976H103.073V33.6585H105.512ZM103.073 33.6585V36.0976H100.634V33.6585H103.073ZM100.634 33.6585V36.0976H98.1951V33.6585H100.634ZM100.634 36.0976V38.5366H98.1951V36.0976H100.634ZM100.634 38.5366V40.9756H98.1951V38.5366H100.634ZM100.634 40.9756V43.4146H98.1951V40.9756H100.634ZM103.073 40.9756V43.4146H100.634V40.9756H103.073ZM105.512 40.9756V43.4146H103.073V40.9756H105.512ZM105.512 38.5366V40.9756H103.073V38.5366H105.512ZM105.512 36.0976V38.5366H103.073V36.0976H105.512ZM103.073 36.0976V38.5366H100.634V36.0976H103.073ZM103.073 38.5366V40.9756H100.634V38.5366H103.073ZM98.1951 38.5366V40.9756H95.7561V38.5366H98.1951ZM98.1951 36.0976V38.5366H95.7561V36.0976H98.1951ZM95.7561 36.0976V38.5366H93.3171V36.0976H95.7561ZM95.7561 38.5366V40.9756H93.3171V38.5366H95.7561ZM93.3171 38.5366V40.9756H90.878V38.5366H93.3171ZM93.3171 40.9756V43.4146H90.878V40.9756H93.3171ZM93.3171 43.4146V45.8537H90.878V43.4146H93.3171ZM95.7561 43.4146V45.8537H93.3171V43.4146H95.7561ZM95.7561 40.9756V43.4146H93.3171V40.9756H95.7561ZM98.1951 40.9756V43.4146H95.7561V40.9756H98.1951ZM98.1951 43.4146V45.8537H95.7561V43.4146H98.1951ZM100.634 43.4146V45.8537H98.1951V43.4146H100.634ZM103.073 43.4146V45.8537H100.634V43.4146H103.073ZM90.878 43.4146V45.8537H88.439V43.4146H90.878ZM90.878 45.8537V48.2927H88.439V45.8537H90.878ZM90.878 48.2927V50.7317H88.439V48.2927H90.878ZM90.878 50.7317V53.1707H88.439V50.7317H90.878ZM90.878 53.1707V55.6098H88.439V53.1707H90.878ZM90.878 55.6098V58.0488H88.439V55.6098H90.878ZM90.878 58.0488V60.4878H88.439V58.0488H90.878ZM90.878 60.4878V62.9268H88.439V60.4878H90.878ZM90.878 62.9268V65.3659H88.439V62.9268H90.878ZM90.878 65.3659V67.8049H88.439V65.3659H90.878ZM93.3171 65.3659V67.8049H90.878V65.3659H93.3171ZM93.3171 67.8049V70.2439H90.878V67.8049H93.3171ZM90.878 67.8049V70.2439H88.439V67.8049H90.878ZM95.7561 67.8049V70.2439H93.3171V67.8049H95.7561ZM98.1951 67.8049V70.2439H95.7561V67.8049H98.1951ZM100.634 67.8049V70.2439H98.1951V67.8049H100.634ZM103.073 67.8049V70.2439H100.634V67.8049H103.073ZM100.634 65.3659V67.8049H98.1951V65.3659H100.634ZM100.634 62.9268V65.3659H98.1951V62.9268H100.634ZM100.634 60.4878V62.9268H98.1951V60.4878H100.634ZM100.634 58.0488V60.4878H98.1951V58.0488H100.634ZM100.634 55.6098V58.0488H98.1951V55.6098H100.634ZM100.634 53.1707V55.6098H98.1951V53.1707H100.634ZM100.634 50.7317V53.1707H98.1951V50.7317H100.634ZM100.634 48.2927V50.7317H98.1951V48.2927H100.634ZM100.634 45.8537V48.2927H98.1951V45.8537H100.634ZM98.1951 45.8537V48.2927H95.7561V45.8537H98.1951ZM95.7561 45.8537V48.2927H93.3171V45.8537H95.7561ZM93.3171 45.8537V48.2927H90.878V45.8537H93.3171ZM93.3171 48.2927V50.7317H90.878V48.2927H93.3171ZM93.3171 50.7317V53.1707H90.878V50.7317H93.3171ZM93.3171 53.1707V55.6098H90.878V53.1707H93.3171ZM93.3171 55.6098V58.0488H90.878V55.6098H93.3171ZM93.3171 58.0488V60.4878H90.878V58.0488H93.3171ZM93.3171 60.4878V62.9268H90.878V60.4878H93.3171ZM93.3171 62.9268V65.3659H90.878V62.9268H93.3171ZM95.7561 65.3659V67.8049H93.3171V65.3659H95.7561ZM98.1951 65.3659V67.8049H95.7561V65.3659H98.1951ZM98.1951 62.9268V65.3659H95.7561V62.9268H98.1951ZM98.1951 60.4878V62.9268H95.7561V60.4878H98.1951ZM98.1951 58.0488V60.4878H95.7561V58.0488H98.1951ZM98.1951 55.6098V58.0488H95.7561V55.6098H98.1951ZM95.7561 55.6098V58.0488H93.3171V55.6098H95.7561ZM95.7561 53.1707V55.6098H93.3171V53.1707H95.7561ZM95.7561 50.7317V53.1707H93.3171V50.7317H95.7561ZM95.7561 48.2927V50.7317H93.3171V48.2927H95.7561ZM98.1951 48.2927V50.7317H95.7561V48.2927H98.1951ZM98.1951 50.7317V53.1707H95.7561V50.7317H98.1951ZM98.1951 53.1707V55.6098H95.7561V53.1707H98.1951ZM95.7561 60.4878V62.9268H93.3171V60.4878H95.7561ZM95.7561 62.9268V65.3659H93.3171V62.9268H95.7561ZM95.7561 58.0488V60.4878H93.3171V58.0488H95.7561ZM117.707 65.3659V67.8049H115.268V65.3659H117.707ZM120.146 65.3659V67.8049H117.707V65.3659H120.146ZM122.585 65.3659V67.8049H120.146V65.3659H122.585ZM125.024 65.3659V67.8049H122.585V65.3659H125.024ZM127.463 65.3659V67.8049H125.024V65.3659H127.463ZM127.463 67.8049V70.2439H125.024V67.8049H127.463ZM125.024 67.8049V70.2439H122.585V67.8049H125.024ZM122.585 67.8049V70.2439H120.146V67.8049H122.585ZM120.146 67.8049V70.2439H117.707V67.8049H120.146ZM117.707 67.8049V70.2439H115.268V67.8049H117.707ZM115.268 67.8049V70.2439H112.829V67.8049H115.268ZM115.268 70.2439V72.6829H112.829V70.2439H115.268ZM117.707 70.2439V72.6829H115.268V70.2439H117.707ZM120.146 70.2439V72.6829H117.707V70.2439H120.146ZM122.585 70.2439V72.6829H120.146V70.2439H122.585ZM122.585 72.6829V75.122H120.146V72.6829H122.585ZM125.024 72.6829V75.122H122.585V72.6829H125.024ZM125.024 70.2439V72.6829H122.585V70.2439H125.024ZM122.585 75.122V77.561H120.146V75.122H122.585ZM120.146 75.122V77.561H117.707V75.122H120.146ZM120.146 72.6829V75.122H117.707V72.6829H120.146ZM117.707 72.6829V75.122H115.268V72.6829H117.707ZM117.707 75.122V77.561H115.268V75.122H117.707ZM117.707 77.561V80H115.268V77.561H117.707ZM115.268 77.561V80H112.829V77.561H115.268ZM112.829 77.561V80H110.39V77.561H112.829ZM110.39 77.561V80H107.951V77.561H110.39ZM107.951 77.561V80H105.512V77.561H107.951ZM105.512 77.561V80H103.073V77.561H105.512ZM103.073 77.561V80H100.634V77.561H103.073ZM100.634 77.561V80H98.1951V77.561H100.634ZM103.073 75.122V77.561H100.634V75.122H103.073ZM105.512 75.122V77.561H103.073V75.122H105.512ZM107.951 75.122V77.561H105.512V75.122H107.951ZM110.39 75.122V77.561H107.951V75.122H110.39ZM112.829 75.122V77.561H110.39V75.122H112.829ZM115.268 75.122V77.561H112.829V75.122H115.268ZM115.268 72.6829V75.122H112.829V72.6829H115.268ZM112.829 72.6829V75.122H110.39V72.6829H112.829ZM110.39 72.6829V75.122H107.951V72.6829H110.39ZM107.951 72.6829V75.122H105.512V72.6829H107.951ZM105.512 72.6829V75.122H103.073V72.6829H105.512ZM103.073 72.6829V75.122H100.634V72.6829H103.073ZM100.634 75.122V77.561H98.1951V75.122H100.634ZM98.1951 75.122V77.561H95.7561V75.122H98.1951ZM95.7561 75.122V77.561H93.3171V75.122H95.7561ZM95.7561 72.6829V75.122H93.3171V72.6829H95.7561ZM93.3171 72.6829V75.122H90.878V72.6829H93.3171ZM93.3171 70.2439V72.6829H90.878V70.2439H93.3171ZM95.7561 70.2439V72.6829H93.3171V70.2439H95.7561ZM98.1951 70.2439V72.6829H95.7561V70.2439H98.1951ZM100.634 70.2439V72.6829H98.1951V70.2439H100.634ZM103.073 70.2439V72.6829H100.634V70.2439H103.073ZM105.512 70.2439V72.6829H103.073V70.2439H105.512ZM107.951 70.2439V72.6829H105.512V70.2439H107.951ZM110.39 70.2439V72.6829H107.951V70.2439H110.39ZM112.829 70.2439V72.6829H110.39V70.2439H112.829ZM100.634 72.6829V75.122H98.1951V72.6829H100.634ZM98.1951 72.6829V75.122H95.7561V72.6829H98.1951ZM127.463 50.7317V53.1707H125.024V50.7317H127.463ZM125.024 50.7317V53.1707H122.585V50.7317H125.024ZM122.585 50.7317V53.1707H120.146V50.7317H122.585ZM120.146 50.7317V53.1707H117.707V50.7317H120.146ZM117.707 50.7317V53.1707H115.268V50.7317H117.707ZM127.463 53.1707V55.6098H125.024V53.1707H127.463ZM122.585 53.1707V55.6098H120.146V53.1707H122.585ZM120.146 53.1707V55.6098H117.707V53.1707H120.146ZM115.268 53.1707V55.6098H112.829V53.1707H115.268ZM112.829 53.1707V55.6098H110.39V53.1707H112.829ZM110.39 53.1707V55.6098H107.951V53.1707H110.39ZM107.951 53.1707V55.6098H105.512V53.1707H107.951ZM105.512 53.1707V55.6098H103.073V53.1707H105.512ZM103.073 53.1707V55.6098H100.634V53.1707H103.073ZM117.707 53.1707V55.6098H115.268V53.1707H117.707ZM125.024 53.1707V55.6098H122.585V53.1707H125.024ZM127.463 55.6098V58.0488H125.024V55.6098H127.463ZM125.024 55.6098V58.0488H122.585V55.6098H125.024ZM122.585 55.6098V58.0488H120.146V55.6098H122.585ZM120.146 55.6098V58.0488H117.707V55.6098H120.146ZM117.707 55.6098V58.0488H115.268V55.6098H117.707ZM115.268 55.6098V58.0488H112.829V55.6098H115.268ZM112.829 55.6098V58.0488H110.39V55.6098H112.829ZM110.39 55.6098V58.0488H107.951V55.6098H110.39ZM107.951 55.6098V58.0488H105.512V55.6098H107.951ZM105.512 55.6098V58.0488H103.073V55.6098H105.512ZM103.073 55.6098V58.0488H100.634V55.6098H103.073ZM103.073 58.0488V60.4878H100.634V58.0488H103.073ZM105.512 58.0488V60.4878H103.073V58.0488H105.512ZM107.951 58.0488V60.4878H105.512V58.0488H107.951ZM112.829 58.0488V60.4878H110.39V58.0488H112.829ZM115.268 58.0488V60.4878H112.829V58.0488H115.268ZM117.707 58.0488V60.4878H115.268V58.0488H117.707ZM120.146 58.0488V60.4878H117.707V58.0488H120.146ZM122.585 58.0488V60.4878H120.146V58.0488H122.585ZM125.024 58.0488V60.4878H122.585V58.0488H125.024ZM127.463 58.0488V60.4878H125.024V58.0488H127.463ZM110.39 58.0488V60.4878H107.951V58.0488H110.39Z" fill="#4F9BA1"/>
<path d="M7.84832 67.8049V70.2439H5.4093V67.8049H7.84832ZM7.84832 65.3659V67.8049H5.4093V65.3659H7.84832ZM7.84832 62.9268V65.3659H5.4093V62.9268H7.84832ZM7.84832 60.4878V62.9268H5.4093V60.4878H7.84832ZM7.84832 43.4146V45.8537H5.4093V43.4146H7.84832ZM10.2873 43.4146V45.8537H7.84832V43.4146H10.2873ZM10.2873 45.8537V48.2927H7.84832V45.8537H10.2873ZM10.2873 48.2927V50.7317H7.84832V48.2927H10.2873ZM12.7264 60.4878V62.9268H10.2873V60.4878H12.7264ZM12.7264 62.9268V65.3659H10.2873V62.9268H12.7264ZM12.7264 65.3659V67.8049H10.2873V65.3659H12.7264ZM12.7264 67.8049V70.2439H10.2873V67.8049H12.7264ZM12.7264 70.2439V72.6829H10.2873V70.2439H12.7264ZM12.7264 72.6829V75.122H10.2873V72.6829H12.7264ZM12.7264 75.122V77.561H10.2873V75.122H12.7264ZM17.6044 77.561V80H15.1654V77.561H17.6044ZM17.6044 75.122V77.561H15.1654V75.122H17.6044ZM17.6044 72.6829V75.122H15.1654V72.6829H17.6044ZM17.6044 70.2439V72.6829H15.1654V70.2439H17.6044ZM17.6044 67.8049V70.2439H15.1654V67.8049H17.6044ZM17.6044 65.3659V67.8049H15.1654V65.3659H17.6044ZM17.6044 62.9268V65.3659H15.1654V62.9268H17.6044ZM17.6044 60.4878V62.9268H15.1654V60.4878H17.6044ZM15.1654 60.4878V62.9268H12.7264V60.4878H15.1654ZM15.1654 62.9268V65.3659H12.7264V62.9268H15.1654ZM15.1654 65.3659V67.8049H12.7264V65.3659H15.1654ZM15.1654 67.8049V70.2439H12.7264V67.8049H15.1654ZM15.1654 70.2439V72.6829H12.7264V70.2439H15.1654ZM15.1654 72.6829V75.122H12.7264V72.6829H15.1654ZM15.1654 75.122V77.561H12.7264V75.122H15.1654ZM10.2873 72.6829V75.122H7.84832V72.6829H10.2873ZM10.2873 70.2439V72.6829H7.84832V70.2439H10.2873ZM10.2873 67.8049V70.2439H7.84832V67.8049H10.2873ZM10.2873 65.3659V67.8049H7.84832V65.3659H10.2873ZM10.2873 62.9268V65.3659H7.84832V62.9268H10.2873ZM10.2873 60.4878V62.9268H7.84832V60.4878H10.2873ZM7.84832 40.9756V43.4146H5.4093V40.9756H7.84832ZM15.1654 40.9756V43.4146H12.7264V40.9756H15.1654ZM15.1654 43.4146V45.8537H12.7264V43.4146H15.1654ZM15.1654 45.8537V48.2927H12.7264V45.8537H15.1654ZM15.1654 48.2927V50.7317H12.7264V48.2927H15.1654ZM15.1654 50.7317V53.1707H12.7264V50.7317H15.1654ZM17.6044 53.1707V55.6098H15.1654V53.1707H17.6044ZM17.6044 50.7317V53.1707H15.1654V50.7317H17.6044ZM17.6044 48.2927V50.7317H15.1654V48.2927H17.6044ZM17.6044 45.8537V48.2927H15.1654V45.8537H17.6044ZM17.6044 43.4146V45.8537H15.1654V43.4146H17.6044ZM17.6044 40.9756V43.4146H15.1654V40.9756H17.6044ZM10.2873 40.9756V43.4146H7.84832V40.9756H10.2873ZM12.7264 40.9756V43.4146H10.2873V40.9756H12.7264ZM12.7264 43.4146V45.8537H10.2873V43.4146H12.7264ZM12.7264 45.8537V48.2927H10.2873V45.8537H12.7264ZM12.7264 48.2927V50.7317H10.2873V48.2927H12.7264ZM12.7264 50.7317V53.1707H10.2873V50.7317H12.7264ZM37.1166 77.561V80H34.6776V77.561H37.1166ZM37.1166 75.122V77.561H34.6776V75.122H37.1166ZM37.1166 72.6829V75.122H34.6776V72.6829H37.1166ZM37.1166 70.2439V72.6829H34.6776V70.2439H37.1166ZM37.1166 67.8049V70.2439H34.6776V67.8049H37.1166ZM37.1166 65.3659V67.8049H34.6776V65.3659H37.1166ZM37.1166 62.9268V65.3659H34.6776V62.9268H37.1166ZM37.1166 60.4878V62.9268H34.6776V60.4878H37.1166ZM37.1166 58.0488V60.4878H34.6776V58.0488H37.1166ZM37.1166 55.6098V58.0488H34.6776V55.6098H37.1166ZM37.1166 53.1707V55.6098H34.6776V53.1707H37.1166ZM37.1166 50.7317V53.1707H34.6776V50.7317H37.1166ZM37.1166 48.2927V50.7317H34.6776V48.2927H37.1166ZM37.1166 45.8537V48.2927H34.6776V45.8537H37.1166ZM37.1166 43.4146V45.8537H34.6776V43.4146H37.1166ZM39.5556 45.8537V48.2927H37.1166V45.8537H39.5556ZM39.5556 48.2927V50.7317H37.1166V48.2927H39.5556ZM39.5556 50.7317V53.1707H37.1166V50.7317H39.5556ZM39.5556 53.1707V55.6098H37.1166V53.1707H39.5556ZM39.5556 55.6098V58.0488H37.1166V55.6098H39.5556ZM39.5556 58.0488V60.4878H37.1166V58.0488H39.5556ZM41.9947 60.4878V62.9268H39.5556V60.4878H41.9947ZM41.9947 62.9268V65.3659H39.5556V62.9268H41.9947ZM41.9947 65.3659V67.8049H39.5556V65.3659H41.9947ZM41.9947 67.8049V70.2439H39.5556V67.8049H41.9947ZM41.9947 70.2439V72.6829H39.5556V70.2439H41.9947ZM41.9947 72.6829V75.122H39.5556V72.6829H41.9947ZM41.9947 75.122V77.561H39.5556V75.122H41.9947ZM46.8727 67.8049V70.2439H44.4337V67.8049H46.8727ZM46.8727 65.3659V67.8049H44.4337V65.3659H46.8727ZM46.8727 62.9268V65.3659H44.4337V62.9268H46.8727ZM46.8727 60.4878V62.9268H44.4337V60.4878H46.8727ZM44.4337 60.4878V62.9268H41.9947V60.4878H44.4337ZM44.4337 58.0488V60.4878H41.9947V58.0488H44.4337ZM44.4337 62.9268V65.3659H41.9947V62.9268H44.4337ZM44.4337 65.3659V67.8049H41.9947V65.3659H44.4337ZM44.4337 67.8049V70.2439H41.9947V67.8049H44.4337ZM44.4337 70.2439V72.6829H41.9947V70.2439H44.4337ZM44.4337 72.6829V75.122H41.9947V72.6829H44.4337ZM39.5556 75.122V77.561H37.1166V75.122H39.5556ZM39.5556 72.6829V75.122H37.1166V72.6829H39.5556ZM39.5556 70.2439V72.6829H37.1166V70.2439H39.5556ZM39.5556 67.8049V70.2439H37.1166V67.8049H39.5556ZM39.5556 65.3659V67.8049H37.1166V65.3659H39.5556ZM39.5556 62.9268V65.3659H37.1166V62.9268H39.5556ZM39.5556 60.4878V62.9268H37.1166V60.4878H39.5556ZM44.4337 50.7317V53.1707H41.9947V50.7317H44.4337ZM46.8727 53.1707V55.6098H44.4337V53.1707H46.8727ZM46.8727 55.6098V58.0488H44.4337V55.6098H46.8727ZM46.8727 58.0488V60.4878H44.4337V58.0488H46.8727ZM41.9947 45.8537V48.2927H39.5556V45.8537H41.9947ZM41.9947 48.2927V50.7317H39.5556V48.2927H41.9947ZM41.9947 50.7317V53.1707H39.5556V50.7317H41.9947ZM41.9947 53.1707V55.6098H39.5556V53.1707H41.9947ZM41.9947 55.6098V58.0488H39.5556V55.6098H41.9947ZM41.9947 58.0488V60.4878H39.5556V58.0488H41.9947ZM44.4337 55.6098V58.0488H41.9947V55.6098H44.4337ZM44.4337 53.1707V55.6098H41.9947V53.1707H44.4337ZM20.0434 77.561V80H17.6044V77.561H20.0434ZM22.4825 77.561V80H20.0434V77.561H22.4825ZM24.9215 77.561V80H22.4825V77.561H24.9215ZM29.7995 77.561V80H27.3605V77.561H29.7995ZM32.2386 77.561V80H29.7995V77.561H32.2386ZM34.6776 77.561V80H32.2386V77.561H34.6776ZM34.6776 75.122V77.561H32.2386V75.122H34.6776ZM32.2386 75.122V77.561H29.7995V75.122H32.2386ZM29.7995 75.122V77.561H27.3605V75.122H29.7995ZM24.9215 75.122V77.561H22.4825V75.122H24.9215ZM22.4825 75.122V77.561H20.0434V75.122H22.4825ZM20.0434 75.122V77.561H17.6044V75.122H20.0434ZM20.0434 72.6829V75.122H17.6044V72.6829H20.0434ZM22.4825 72.6829V75.122H20.0434V72.6829H22.4825ZM24.9215 72.6829V75.122H22.4825V72.6829H24.9215ZM29.7995 72.6829V75.122H27.3605V72.6829H29.7995ZM32.2386 72.6829V75.122H29.7995V72.6829H32.2386ZM34.6776 72.6829V75.122H32.2386V72.6829H34.6776ZM34.6776 70.2439V72.6829H32.2386V70.2439H34.6776ZM32.2386 70.2439V72.6829H29.7995V70.2439H32.2386ZM29.7995 70.2439V72.6829H27.3605V70.2439H29.7995ZM24.9215 70.2439V72.6829H22.4825V70.2439H24.9215ZM22.4825 70.2439V72.6829H20.0434V70.2439H22.4825ZM20.0434 70.2439V72.6829H17.6044V70.2439H20.0434ZM20.0434 67.8049V70.2439H17.6044V67.8049H20.0434ZM34.6776 67.8049V70.2439H32.2386V67.8049H34.6776ZM44.4337 31.2195V28.7805H46.8727V31.2195H44.4337ZM44.4337 33.6585V31.2195H46.8727V33.6585H44.4337ZM44.4337 36.0976V33.6585H46.8727V36.0976H44.4337ZM39.5556 36.0976V33.6585H41.9947V36.0976H39.5556ZM39.5556 33.6585V31.2195H41.9947V33.6585H39.5556ZM39.5556 31.2195V28.7805H41.9947V31.2195H39.5556ZM39.5556 28.7805V26.3415H41.9947V28.7805H39.5556ZM39.5556 26.3415V23.9024H41.9947V26.3415H39.5556ZM39.5556 23.9024V21.4634H41.9947V23.9024H39.5556ZM34.6776 21.4634V19.0244H37.1166V21.4634H34.6776ZM34.6776 23.9024V21.4634H37.1166V23.9024H34.6776ZM34.6776 26.3415V23.9024H37.1166V26.3415H34.6776ZM34.6776 28.7805V26.3415H37.1166V28.7805H34.6776ZM34.6776 31.2195V28.7805H37.1166V31.2195H34.6776ZM34.6776 33.6585V31.2195H37.1166V33.6585H34.6776ZM34.6776 36.0976V33.6585H37.1166V36.0976H34.6776ZM37.1166 36.0976V33.6585H39.5556V36.0976H37.1166ZM37.1166 33.6585V31.2195H39.5556V33.6585H37.1166ZM37.1166 31.2195V28.7805H39.5556V31.2195H37.1166ZM37.1166 28.7805V26.3415H39.5556V28.7805H37.1166ZM37.1166 26.3415V23.9024H39.5556V26.3415H37.1166ZM37.1166 23.9024V21.4634H39.5556V23.9024H37.1166ZM41.9947 26.3415V23.9024H44.4337V26.3415H41.9947ZM41.9947 28.7805V26.3415H44.4337V28.7805H41.9947ZM41.9947 31.2195V28.7805H44.4337V31.2195H41.9947ZM41.9947 33.6585V31.2195H44.4337V33.6585H41.9947ZM41.9947 36.0976V33.6585H44.4337V36.0976H41.9947ZM15.1654 21.4634V19.0244H17.6044V21.4634H15.1654ZM15.1654 23.9024V21.4634H17.6044V23.9024H15.1654ZM15.1654 26.3415V23.9024H17.6044V26.3415H15.1654ZM15.1654 28.7805V26.3415H17.6044V28.7805H15.1654ZM15.1654 31.2195V28.7805H17.6044V31.2195H15.1654ZM15.1654 33.6585V31.2195H17.6044V33.6585H15.1654ZM15.1654 36.0976V33.6585H17.6044V36.0976H15.1654ZM10.2873 36.0976V33.6585H12.7264V36.0976H10.2873ZM10.2873 33.6585V31.2195H12.7264V33.6585H10.2873ZM10.2873 31.2195V28.7805H12.7264V31.2195H10.2873ZM10.2873 28.7805V26.3415H12.7264V28.7805H10.2873ZM10.2873 26.3415V23.9024H12.7264V26.3415H10.2873ZM10.2873 23.9024V21.4634H12.7264V23.9024H10.2873ZM5.4093 31.2195V28.7805H7.84832V31.2195H5.4093ZM5.4093 33.6585V31.2195H7.84832V33.6585H5.4093ZM5.4093 36.0976V33.6585H7.84832V36.0976H5.4093ZM7.84832 36.0976V33.6585H10.2873V36.0976H7.84832ZM7.84832 33.6585V31.2195H10.2873V33.6585H7.84832ZM7.84832 31.2195V28.7805H10.2873V31.2195H7.84832ZM7.84832 28.7805V26.3415H10.2873V28.7805H7.84832ZM7.84832 26.3415V23.9024H10.2873V26.3415H7.84832ZM12.7264 23.9024V21.4634H15.1654V23.9024H12.7264ZM12.7264 26.3415V23.9024H15.1654V26.3415H12.7264ZM12.7264 28.7805V26.3415H15.1654V28.7805H12.7264ZM12.7264 31.2195V28.7805H15.1654V31.2195H12.7264ZM12.7264 33.6585V31.2195H15.1654V33.6585H12.7264ZM12.7264 36.0976V33.6585H15.1654V36.0976H12.7264ZM32.2386 21.4634V19.0244H34.6776V21.4634H32.2386ZM29.7995 21.4634V19.0244H32.2386V21.4634H29.7995ZM27.3605 21.4634V19.0244H29.7995V21.4634H27.3605ZM22.4825 21.4634V19.0244H24.9215V21.4634H22.4825ZM20.0434 21.4634V19.0244H22.4825V21.4634H20.0434ZM17.6044 21.4634V19.0244H20.0434V21.4634H17.6044ZM17.6044 23.9024V21.4634H20.0434V23.9024H17.6044ZM20.0434 23.9024V21.4634H22.4825V23.9024H20.0434ZM22.4825 23.9024V21.4634H24.9215V23.9024H22.4825ZM27.3605 23.9024V21.4634H29.7995V23.9024H27.3605ZM29.7995 23.9024V21.4634H32.2386V23.9024H29.7995ZM32.2386 23.9024V21.4634H34.6776V23.9024H32.2386ZM32.2386 26.3415V23.9024H34.6776V26.3415H32.2386ZM29.7995 26.3415V23.9024H32.2386V26.3415H29.7995ZM27.3605 26.3415V23.9024H29.7995V26.3415H27.3605ZM22.4825 26.3415V23.9024H24.9215V26.3415H22.4825ZM20.0434 26.3415V23.9024H22.4825V26.3415H20.0434ZM17.6044 26.3415V23.9024H20.0434V26.3415H17.6044ZM17.6044 28.7805V26.3415H20.0434V28.7805H17.6044ZM20.0434 28.7805V26.3415H22.4825V28.7805H20.0434ZM22.4825 28.7805V26.3415H24.9215V28.7805H22.4825ZM27.3605 28.7805V26.3415H29.7995V28.7805H27.3605ZM29.7995 28.7805V26.3415H32.2386V28.7805H29.7995ZM32.2386 28.7805V26.3415H34.6776V28.7805H32.2386ZM32.2386 31.2195V28.7805H34.6776V31.2195H32.2386ZM17.6044 31.2195V28.7805H20.0434V31.2195H17.6044ZM7.84832 38.5366V40.9756H5.4093V38.5366H7.84832ZM10.2873 38.5366V40.9756H7.84832V38.5366H10.2873ZM7.84832 36.0976V38.5366H5.4093V36.0976H7.84832ZM15.1654 36.0976V38.5366H12.7264V36.0976H15.1654ZM15.1654 38.5366V40.9756H12.7264V38.5366H15.1654ZM17.6044 38.5366V40.9756H15.1654V38.5366H17.6044ZM17.6044 36.0976V38.5366H15.1654V36.0976H17.6044ZM10.2873 36.0976V38.5366H7.84832V36.0976H10.2873ZM12.7264 36.0976V38.5366H10.2873V36.0976H12.7264ZM12.7264 38.5366V40.9756H10.2873V38.5366H12.7264ZM22.4825 67.8049V70.2439H20.0434V67.8049H22.4825ZM24.9215 67.8049V70.2439H22.4825V67.8049H24.9215ZM29.7995 67.8049V70.2439H27.3605V67.8049H29.7995ZM32.2386 67.8049V70.2439H29.7995V67.8049H32.2386ZM34.6776 65.3659V67.8049H32.2386V65.3659H34.6776ZM20.0434 65.3659V67.8049H17.6044V65.3659H20.0434ZM22.4825 28.7805V31.2195H20.0434V28.7805H22.4825ZM24.9215 28.7805V31.2195H22.4825V28.7805H24.9215ZM29.7995 28.7805V31.2195H27.3605V28.7805H29.7995ZM32.2386 28.7805V31.2195H29.7995V28.7805H32.2386ZM34.6776 31.2195V33.6585H32.2386V31.2195H34.6776ZM20.0434 31.2195V33.6585H17.6044V31.2195H20.0434ZM24.9215 48.2927V50.7317H22.4825V48.2927H24.9215ZM29.7995 48.2927V50.7317H27.3605V48.2927H29.7995ZM32.2386 48.2927V50.7317H29.7995V48.2927H32.2386ZM34.6776 48.2927V50.7317H32.2386V48.2927H34.6776ZM34.6776 50.7317V53.1707H32.2386V50.7317H34.6776ZM32.2386 50.7317V53.1707H29.7995V50.7317H32.2386ZM29.7995 50.7317V53.1707H27.3605V50.7317H29.7995ZM24.9215 50.7317V53.1707H22.4825V50.7317H24.9215ZM24.9215 43.4146V45.8537H22.4825V43.4146H24.9215ZM29.7995 43.4146V45.8537H27.3605V43.4146H29.7995ZM32.2386 43.4146V45.8537H29.7995V43.4146H32.2386ZM34.6776 43.4146V45.8537H32.2386V43.4146H34.6776ZM34.6776 45.8537V48.2927H32.2386V45.8537H34.6776ZM32.2386 45.8537V48.2927H29.7995V45.8537H32.2386ZM29.7995 45.8537V48.2927H27.3605V45.8537H29.7995ZM24.9215 45.8537V48.2927H22.4825V45.8537H24.9215ZM24.9215 53.1707V55.6098H22.4825V53.1707H24.9215ZM29.7995 53.1707V55.6098H27.3605V53.1707H29.7995ZM32.2386 53.1707V55.6098H29.7995V53.1707H32.2386ZM34.6776 53.1707V55.6098H32.2386V53.1707H34.6776ZM44.4337 48.2927V50.7317H41.9947V48.2927H44.4337ZM34.6776 55.6098V58.0488H32.2386V55.6098H34.6776ZM20.0434 43.4146V45.8537H17.6044V43.4146H20.0434ZM22.4825 43.4146V45.8537H20.0434V43.4146H22.4825ZM20.0434 40.9756V43.4146H17.6044V40.9756H20.0434ZM22.4825 45.8537V48.2927H20.0434V45.8537H22.4825ZM22.4825 48.2927V50.7317H20.0434V48.2927H22.4825ZM22.4825 50.7317V53.1707H20.0434V50.7317H22.4825ZM22.4825 53.1707V55.6098H20.0434V53.1707H22.4825ZM20.0434 53.1707V55.6098H17.6044V53.1707H20.0434ZM20.0434 50.7317V53.1707H17.6044V50.7317H20.0434ZM20.0434 48.2927V50.7317H17.6044V48.2927H20.0434ZM20.0434 45.8537V48.2927H17.6044V45.8537H20.0434ZM27.3605 19.0244V21.4634H24.9215V19.0244H27.3605ZM27.3605 21.4634V23.9024H24.9215V21.4634H27.3605ZM27.3605 23.9024V26.3415H24.9215V23.9024H27.3605ZM27.3605 26.3415V28.7805H24.9215V26.3415H27.3605ZM27.3605 28.7805V31.2195H24.9215V28.7805H27.3605ZM27.3605 43.4146V45.8537H24.9215V43.4146H27.3605ZM27.3605 45.8537V48.2927H24.9215V45.8537H27.3605ZM27.3605 48.2927V50.7317H24.9215V48.2927H27.3605ZM27.3605 50.7317V53.1707H24.9215V50.7317H27.3605ZM27.3605 53.1707V55.6098H24.9215V53.1707H27.3605ZM27.3605 67.8049V70.2439H24.9215V67.8049H27.3605ZM27.3605 70.2439V72.6829H24.9215V70.2439H27.3605ZM27.3605 72.6829V75.122H24.9215V72.6829H27.3605ZM27.3605 75.122V77.561H24.9215V75.122H27.3605ZM27.3605 77.561V80H24.9215V77.561H27.3605ZM68.7763 23.9024V26.3415H66.3373V23.9024H68.7763ZM68.7763 26.3415V28.7805H66.3373V26.3415H68.7763ZM68.7763 28.7805V31.2195H66.3373V28.7805H68.7763ZM68.7763 31.2195V33.6585H66.3373V31.2195H68.7763ZM68.7763 33.6585V36.0976H66.3373V33.6585H68.7763ZM68.7763 36.0976V38.5366H66.3373V36.0976H68.7763ZM68.7763 38.5366V40.9756H66.3373V38.5366H68.7763ZM68.7763 40.9756V43.4146H66.3373V40.9756H68.7763ZM71.2153 40.9756V43.4146H68.7763V40.9756H71.2153ZM73.6543 40.9756V43.4146H71.2153V40.9756H73.6543ZM76.0934 40.9756V43.4146H73.6543V40.9756H76.0934ZM78.5324 40.9756V43.4146H76.0934V40.9756H78.5324ZM68.7763 45.8537V48.2927H66.3373V45.8537H68.7763ZM66.3373 45.8537V48.2927H63.8982V45.8537H66.3373ZM66.3373 43.4146V45.8537H63.8982V43.4146H66.3373ZM68.7763 43.4146V45.8537H66.3373V43.4146H68.7763ZM68.7763 48.2927V50.7317H66.3373V48.2927H68.7763ZM66.3373 48.2927V50.7317H63.8982V48.2927H66.3373ZM63.8982 48.2927V50.7317H61.4592V48.2927H63.8982ZM61.4592 48.2927V50.7317H59.0202V48.2927H61.4592ZM59.0202 48.2927V50.7317H56.5812V48.2927H59.0202ZM54.1421 40.9756V43.4146H51.7031V40.9756H54.1421ZM56.5812 40.9756V43.4146H54.1421V40.9756H56.5812ZM59.0202 40.9756V43.4146H56.5812V40.9756H59.0202ZM61.4592 40.9756V43.4146H59.0202V40.9756H61.4592ZM63.8982 40.9756V43.4146H61.4592V40.9756H63.8982ZM66.3373 40.9756V43.4146H63.8982V40.9756H66.3373ZM63.8982 45.8537V48.2927H61.4592V45.8537H63.8982ZM63.8982 43.4146V45.8537H61.4592V43.4146H63.8982ZM61.4592 43.4146V45.8537H59.0202V43.4146H61.4592ZM59.0202 43.4146V45.8537H56.5812V43.4146H59.0202ZM59.0202 45.8537V48.2927H56.5812V45.8537H59.0202ZM61.4592 45.8537V48.2927H59.0202V45.8537H61.4592ZM66.3373 26.3415V28.7805H63.8982V26.3415H66.3373ZM66.3373 28.7805V31.2195H63.8982V28.7805H66.3373ZM63.8982 28.7805V31.2195H61.4592V28.7805H63.8982ZM63.8982 31.2195V33.6585H61.4592V31.2195H63.8982ZM63.8982 33.6585V36.0976H61.4592V33.6585H63.8982ZM61.4592 31.2195V33.6585H59.0202V31.2195H61.4592ZM61.4592 33.6585V36.0976H59.0202V33.6585H61.4592ZM59.0202 33.6585V36.0976H56.5812V33.6585H59.0202ZM59.0202 36.0976V38.5366H56.5812V36.0976H59.0202ZM59.0202 38.5366V40.9756H56.5812V38.5366H59.0202ZM63.8982 38.5366V40.9756H61.4592V38.5366H63.8982ZM66.3373 38.5366V40.9756H63.8982V38.5366H66.3373ZM66.3373 36.0976V38.5366H63.8982V36.0976H66.3373ZM66.3373 33.6585V36.0976H63.8982V33.6585H66.3373ZM66.3373 31.2195V33.6585H63.8982V31.2195H66.3373ZM63.8982 36.0976V38.5366H61.4592V36.0976H63.8982ZM61.4592 38.5366V40.9756H59.0202V38.5366H61.4592ZM61.4592 36.0976V38.5366H59.0202V36.0976H61.4592ZM78.5324 70.2439V72.6829H76.0934V70.2439H78.5324ZM78.5324 72.6829V75.122H76.0934V72.6829H78.5324ZM78.5324 77.561V80H76.0934V77.561H78.5324ZM76.0934 77.561V80H73.6543V77.561H76.0934ZM73.6543 77.561V80H71.2153V77.561H73.6543ZM71.2153 77.561V80H68.7763V77.561H71.2153ZM68.7763 77.561V80H66.3373V77.561H68.7763ZM68.7763 75.122V77.561H66.3373V75.122H68.7763ZM66.3373 75.122V77.561H63.8982V75.122H66.3373ZM63.8982 75.122V77.561H61.4592V75.122H63.8982ZM63.8982 72.6829V75.122H61.4592V72.6829H63.8982ZM61.4592 72.6829V75.122H59.0202V72.6829H61.4592ZM61.4592 70.2439V72.6829H59.0202V70.2439H61.4592ZM61.4592 67.8049V70.2439H59.0202V67.8049H61.4592ZM59.0202 67.8049V70.2439H56.5812V67.8049H59.0202ZM59.0202 65.3659V67.8049H56.5812V65.3659H59.0202ZM59.0202 62.9268V65.3659H56.5812V62.9268H59.0202ZM59.0202 60.4878V62.9268H56.5812V60.4878H59.0202ZM59.0202 58.0488V60.4878H56.5812V58.0488H59.0202ZM59.0202 55.6098V58.0488H56.5812V55.6098H59.0202ZM59.0202 53.1707V55.6098H56.5812V53.1707H59.0202ZM59.0202 50.7317V53.1707H56.5812V50.7317H59.0202ZM61.4592 50.7317V53.1707H59.0202V50.7317H61.4592ZM63.8982 50.7317V53.1707H61.4592V50.7317H63.8982ZM66.3373 50.7317V53.1707H63.8982V50.7317H66.3373ZM68.7763 50.7317V53.1707H66.3373V50.7317H68.7763ZM68.7763 53.1707V55.6098H66.3373V53.1707H68.7763ZM68.7763 55.6098V58.0488H66.3373V55.6098H68.7763ZM68.7763 58.0488V60.4878H66.3373V58.0488H68.7763ZM68.7763 60.4878V62.9268H66.3373V60.4878H68.7763ZM68.7763 62.9268V65.3659H66.3373V62.9268H68.7763ZM68.7763 65.3659V67.8049H66.3373V65.3659H68.7763ZM68.7763 67.8049V70.2439H66.3373V67.8049H68.7763ZM71.2153 67.8049V70.2439H68.7763V67.8049H71.2153ZM71.2153 70.2439V72.6829H68.7763V70.2439H71.2153ZM73.6543 70.2439V72.6829H71.2153V70.2439H73.6543ZM73.6543 72.6829V75.122H71.2153V72.6829H73.6543ZM76.0934 72.6829V75.122H73.6543V72.6829H76.0934ZM76.0934 70.2439V72.6829H73.6543V70.2439H76.0934ZM78.5324 75.122V77.561H76.0934V75.122H78.5324ZM76.0934 75.122V77.561H73.6543V75.122H76.0934ZM73.6543 75.122V77.561H71.2153V75.122H73.6543ZM71.2153 75.122V77.561H68.7763V75.122H71.2153ZM71.2153 72.6829V75.122H68.7763V72.6829H71.2153ZM68.7763 72.6829V75.122H66.3373V72.6829H68.7763ZM68.7763 70.2439V72.6829H66.3373V70.2439H68.7763ZM66.3373 70.2439V72.6829H63.8982V70.2439H66.3373ZM66.3373 72.6829V75.122H63.8982V72.6829H66.3373ZM63.8982 70.2439V72.6829H61.4592V70.2439H63.8982ZM66.3373 67.8049V70.2439H63.8982V67.8049H66.3373ZM66.3373 65.3659V67.8049H63.8982V65.3659H66.3373ZM63.8982 67.8049V70.2439H61.4592V67.8049H63.8982ZM63.8982 65.3659V67.8049H61.4592V65.3659H63.8982ZM66.3373 62.9268V65.3659H63.8982V62.9268H66.3373ZM66.3373 60.4878V62.9268H63.8982V60.4878H66.3373ZM66.3373 58.0488V60.4878H63.8982V58.0488H66.3373ZM66.3373 55.6098V58.0488H63.8982V55.6098H66.3373ZM66.3373 53.1707V55.6098H63.8982V53.1707H66.3373ZM63.8982 53.1707V55.6098H61.4592V53.1707H63.8982ZM61.4592 53.1707V55.6098H59.0202V53.1707H61.4592ZM61.4592 55.6098V58.0488H59.0202V55.6098H61.4592ZM61.4592 58.0488V60.4878H59.0202V58.0488H61.4592ZM61.4592 60.4878V62.9268H59.0202V60.4878H61.4592ZM61.4592 62.9268V65.3659H59.0202V62.9268H61.4592ZM61.4592 65.3659V67.8049H59.0202V65.3659H61.4592ZM63.8982 62.9268V65.3659H61.4592V62.9268H63.8982ZM63.8982 60.4878V62.9268H61.4592V60.4878H63.8982ZM63.8982 58.0488V60.4878H61.4592V58.0488H63.8982ZM63.8982 55.6098V58.0488H61.4592V55.6098H63.8982ZM78.5324 36.0976V38.5366H76.0934V36.0976H78.5324ZM76.0934 36.0976V38.5366H73.6543V36.0976H76.0934ZM76.0934 38.5366V40.9756H73.6543V38.5366H76.0934ZM78.5324 38.5366V40.9756H76.0934V38.5366H78.5324ZM73.6543 38.5366V40.9756H71.2153V38.5366H73.6543ZM71.2153 38.5366V40.9756H68.7763V38.5366H71.2153ZM71.2153 36.0976V38.5366H68.7763V36.0976H71.2153ZM73.6543 36.0976V38.5366H71.2153V36.0976H73.6543ZM59.0202 31.2195V33.6585H56.5812V31.2195H59.0202ZM61.4592 28.7805V31.2195H59.0202V28.7805H61.4592ZM63.8982 26.3415V28.7805H61.4592V26.3415H63.8982ZM66.3373 23.9024V26.3415H63.8982V23.9024H66.3373ZM56.5812 36.0976V38.5366H54.1421V36.0976H56.5812ZM56.5812 38.5366V40.9756H54.1421V38.5366H56.5812ZM54.1421 38.5366V40.9756H51.7031V38.5366H54.1421ZM54.1421 36.0976V38.5366H51.7031V36.0976H54.1421ZM68.7763 21.4634V23.9024H66.3373V21.4634H68.7763ZM54.1421 43.4146V45.8537H51.7031V43.4146H54.1421ZM56.5812 43.4146V45.8537H54.1421V43.4146H56.5812ZM71.2153 43.4146V45.8537H68.7763V43.4146H71.2153ZM73.6543 43.4146V45.8537H71.2153V43.4146H73.6543ZM76.0934 43.4146V45.8537H73.6543V43.4146H76.0934ZM78.5324 43.4146V45.8537H76.0934V43.4146H78.5324Z" fill="#4F9BA1"/>
<path d="M161.707 48.2927V50.7317H159.268V48.2927H161.707ZM164.146 48.2927V50.7317H161.707V48.2927H164.146ZM166.585 48.2927V50.7317H164.146V48.2927H166.585ZM169.024 48.2927V50.7317H166.585V48.2927H169.024ZM171.463 48.2927V50.7317H169.024V48.2927H171.463ZM171.463 45.8537V48.2927H169.024V45.8537H171.463ZM171.463 43.4146V45.8537H169.024V43.4146H171.463ZM169.024 43.4146V45.8537H166.585V43.4146H169.024ZM166.585 43.4146V45.8537H164.146V43.4146H166.585ZM164.146 43.4146V45.8537H161.707V43.4146H164.146ZM164.146 45.8537V48.2927H161.707V45.8537H164.146ZM161.707 45.8537V48.2927H159.268V45.8537H161.707ZM166.585 45.8537V48.2927H164.146V45.8537H166.585ZM169.024 45.8537V48.2927H166.585V45.8537H169.024ZM161.707 43.4146V45.8537H159.268V43.4146H161.707ZM159.268 43.4146V45.8537H156.829V43.4146H159.268ZM159.268 40.9756V43.4146H156.829V40.9756H159.268ZM161.707 40.9756V43.4146H159.268V40.9756H161.707ZM164.146 40.9756V43.4146H161.707V40.9756H164.146ZM166.585 40.9756V43.4146H164.146V40.9756H166.585ZM169.024 40.9756V43.4146H166.585V40.9756H169.024ZM169.024 38.5366V40.9756H166.585V38.5366H169.024ZM166.585 38.5366V40.9756H164.146V38.5366H166.585ZM164.146 38.5366V40.9756H161.707V38.5366H164.146ZM161.707 38.5366V40.9756H159.268V38.5366H161.707ZM159.268 38.5366V40.9756H156.829V38.5366H159.268ZM164.146 36.0976V38.5366H161.707V36.0976H164.146ZM166.585 36.0976V38.5366H164.146V36.0976H166.585ZM161.707 36.0976V38.5366H159.268V36.0976H161.707ZM161.707 33.6585V36.0976H159.268V33.6585H161.707ZM159.268 33.6585V36.0976H156.829V33.6585H159.268ZM159.268 36.0976V38.5366H156.829V36.0976H159.268ZM156.829 36.0976V38.5366H154.39V36.0976H156.829ZM156.829 33.6585V36.0976H154.39V33.6585H156.829ZM156.829 38.5366V40.9756H154.39V38.5366H156.829ZM154.39 38.5366V40.9756H151.951V38.5366H154.39ZM154.39 40.9756V43.4146H151.951V40.9756H154.39ZM156.829 40.9756V43.4146H154.39V40.9756H156.829ZM151.951 40.9756V43.4146H149.512V40.9756H151.951ZM151.951 38.5366V40.9756H149.512V38.5366H151.951ZM151.951 36.0976V38.5366H149.512V36.0976H151.951ZM151.951 33.6585V36.0976H149.512V33.6585H151.951ZM154.39 33.6585V36.0976H151.951V33.6585H154.39ZM154.39 36.0976V38.5366H151.951V36.0976H154.39ZM149.512 33.6585V36.0976H147.073V33.6585H149.512ZM147.073 33.6585V36.0976H144.634V33.6585H147.073ZM144.634 33.6585V36.0976H142.195V33.6585H144.634ZM144.634 36.0976V38.5366H142.195V36.0976H144.634ZM144.634 38.5366V40.9756H142.195V38.5366H144.634ZM144.634 40.9756V43.4146H142.195V40.9756H144.634ZM147.073 40.9756V43.4146H144.634V40.9756H147.073ZM149.512 40.9756V43.4146H147.073V40.9756H149.512ZM149.512 38.5366V40.9756H147.073V38.5366H149.512ZM149.512 36.0976V38.5366H147.073V36.0976H149.512ZM147.073 36.0976V38.5366H144.634V36.0976H147.073ZM147.073 38.5366V40.9756H144.634V38.5366H147.073ZM142.195 38.5366V40.9756H139.756V38.5366H142.195ZM142.195 36.0976V38.5366H139.756V36.0976H142.195ZM139.756 36.0976V38.5366H137.317V36.0976H139.756ZM139.756 38.5366V40.9756H137.317V38.5366H139.756ZM137.317 38.5366V40.9756H134.878V38.5366H137.317ZM137.317 40.9756V43.4146H134.878V40.9756H137.317ZM137.317 43.4146V45.8537H134.878V43.4146H137.317ZM139.756 43.4146V45.8537H137.317V43.4146H139.756ZM139.756 40.9756V43.4146H137.317V40.9756H139.756ZM142.195 40.9756V43.4146H139.756V40.9756H142.195ZM142.195 43.4146V45.8537H139.756V43.4146H142.195ZM144.634 43.4146V45.8537H142.195V43.4146H144.634ZM147.073 43.4146V45.8537H144.634V43.4146H147.073ZM134.878 43.4146V45.8537H132.439V43.4146H134.878ZM134.878 45.8537V48.2927H132.439V45.8537H134.878ZM134.878 48.2927V50.7317H132.439V48.2927H134.878ZM134.878 50.7317V53.1707H132.439V50.7317H134.878ZM134.878 53.1707V55.6098H132.439V53.1707H134.878ZM134.878 55.6098V58.0488H132.439V55.6098H134.878ZM134.878 58.0488V60.4878H132.439V58.0488H134.878ZM134.878 60.4878V62.9268H132.439V60.4878H134.878ZM134.878 62.9268V65.3659H132.439V62.9268H134.878ZM134.878 65.3659V67.8049H132.439V65.3659H134.878ZM137.317 65.3659V67.8049H134.878V65.3659H137.317ZM137.317 67.8049V70.2439H134.878V67.8049H137.317ZM134.878 67.8049V70.2439H132.439V67.8049H134.878ZM139.756 67.8049V70.2439H137.317V67.8049H139.756ZM142.195 67.8049V70.2439H139.756V67.8049H142.195ZM144.634 67.8049V70.2439H142.195V67.8049H144.634ZM147.073 67.8049V70.2439H144.634V67.8049H147.073ZM144.634 65.3659V67.8049H142.195V65.3659H144.634ZM144.634 62.9268V65.3659H142.195V62.9268H144.634ZM144.634 60.4878V62.9268H142.195V60.4878H144.634ZM144.634 58.0488V60.4878H142.195V58.0488H144.634ZM144.634 55.6098V58.0488H142.195V55.6098H144.634ZM144.634 53.1707V55.6098H142.195V53.1707H144.634ZM144.634 50.7317V53.1707H142.195V50.7317H144.634ZM144.634 48.2927V50.7317H142.195V48.2927H144.634ZM144.634 45.8537V48.2927H142.195V45.8537H144.634ZM142.195 45.8537V48.2927H139.756V45.8537H142.195ZM139.756 45.8537V48.2927H137.317V45.8537H139.756ZM137.317 45.8537V48.2927H134.878V45.8537H137.317ZM137.317 48.2927V50.7317H134.878V48.2927H137.317ZM137.317 50.7317V53.1707H134.878V50.7317H137.317ZM137.317 53.1707V55.6098H134.878V53.1707H137.317ZM137.317 55.6098V58.0488H134.878V55.6098H137.317ZM137.317 58.0488V60.4878H134.878V58.0488H137.317ZM137.317 60.4878V62.9268H134.878V60.4878H137.317ZM137.317 62.9268V65.3659H134.878V62.9268H137.317ZM139.756 65.3659V67.8049H137.317V65.3659H139.756ZM142.195 65.3659V67.8049H139.756V65.3659H142.195ZM142.195 62.9268V65.3659H139.756V62.9268H142.195ZM142.195 60.4878V62.9268H139.756V60.4878H142.195ZM142.195 58.0488V60.4878H139.756V58.0488H142.195ZM142.195 55.6098V58.0488H139.756V55.6098H142.195ZM139.756 55.6098V58.0488H137.317V55.6098H139.756ZM139.756 53.1707V55.6098H137.317V53.1707H139.756ZM139.756 50.7317V53.1707H137.317V50.7317H139.756ZM139.756 48.2927V50.7317H137.317V48.2927H139.756ZM142.195 48.2927V50.7317H139.756V48.2927H142.195ZM142.195 50.7317V53.1707H139.756V50.7317H142.195ZM142.195 53.1707V55.6098H139.756V53.1707H142.195ZM139.756 60.4878V62.9268H137.317V60.4878H139.756ZM139.756 62.9268V65.3659H137.317V62.9268H139.756ZM139.756 58.0488V60.4878H137.317V58.0488H139.756ZM161.707 65.3659V67.8049H159.268V65.3659H161.707ZM164.146 65.3659V67.8049H161.707V65.3659H164.146ZM166.585 65.3659V67.8049H164.146V65.3659H166.585ZM169.024 65.3659V67.8049H166.585V65.3659H169.024ZM171.463 65.3659V67.8049H169.024V65.3659H171.463ZM171.463 67.8049V70.2439H169.024V67.8049H171.463ZM169.024 67.8049V70.2439H166.585V67.8049H169.024ZM166.585 67.8049V70.2439H164.146V67.8049H166.585ZM164.146 67.8049V70.2439H161.707V67.8049H164.146ZM161.707 67.8049V70.2439H159.268V67.8049H161.707ZM159.268 67.8049V70.2439H156.829V67.8049H159.268ZM159.268 70.2439V72.6829H156.829V70.2439H159.268ZM161.707 70.2439V72.6829H159.268V70.2439H161.707ZM164.146 70.2439V72.6829H161.707V70.2439H164.146ZM166.585 70.2439V72.6829H164.146V70.2439H166.585ZM166.585 72.6829V75.122H164.146V72.6829H166.585ZM169.024 72.6829V75.122H166.585V72.6829H169.024ZM169.024 70.2439V72.6829H166.585V70.2439H169.024ZM166.585 75.122V77.561H164.146V75.122H166.585ZM164.146 75.122V77.561H161.707V75.122H164.146ZM164.146 72.6829V75.122H161.707V72.6829H164.146ZM161.707 72.6829V75.122H159.268V72.6829H161.707ZM161.707 75.122V77.561H159.268V75.122H161.707ZM161.707 77.561V80H159.268V77.561H161.707ZM159.268 77.561V80H156.829V77.561H159.268ZM156.829 77.561V80H154.39V77.561H156.829ZM154.39 77.561V80H151.951V77.561H154.39ZM151.951 77.561V80H149.512V77.561H151.951ZM149.512 77.561V80H147.073V77.561H149.512ZM147.073 77.561V80H144.634V77.561H147.073ZM144.634 77.561V80H142.195V77.561H144.634ZM147.073 75.122V77.561H144.634V75.122H147.073ZM149.512 75.122V77.561H147.073V75.122H149.512ZM151.951 75.122V77.561H149.512V75.122H151.951ZM154.39 75.122V77.561H151.951V75.122H154.39ZM156.829 75.122V77.561H154.39V75.122H156.829ZM159.268 75.122V77.561H156.829V75.122H159.268ZM159.268 72.6829V75.122H156.829V72.6829H159.268ZM156.829 72.6829V75.122H154.39V72.6829H156.829ZM154.39 72.6829V75.122H151.951V72.6829H154.39ZM151.951 72.6829V75.122H149.512V72.6829H151.951ZM149.512 72.6829V75.122H147.073V72.6829H149.512ZM147.073 72.6829V75.122H144.634V72.6829H147.073ZM144.634 75.122V77.561H142.195V75.122H144.634ZM142.195 75.122V77.561H139.756V75.122H142.195ZM139.756 75.122V77.561H137.317V75.122H139.756ZM139.756 72.6829V75.122H137.317V72.6829H139.756ZM137.317 72.6829V75.122H134.878V72.6829H137.317ZM137.317 70.2439V72.6829H134.878V70.2439H137.317ZM139.756 70.2439V72.6829H137.317V70.2439H139.756ZM142.195 70.2439V72.6829H139.756V70.2439H142.195ZM144.634 70.2439V72.6829H142.195V70.2439H144.634ZM147.073 70.2439V72.6829H144.634V70.2439H147.073ZM149.512 70.2439V72.6829H147.073V70.2439H149.512ZM151.951 70.2439V72.6829H149.512V70.2439H151.951ZM154.39 70.2439V72.6829H151.951V70.2439H154.39ZM156.829 70.2439V72.6829H154.39V70.2439H156.829ZM144.634 72.6829V75.122H142.195V72.6829H144.634ZM142.195 72.6829V75.122H139.756V72.6829H142.195ZM171.463 50.7317V53.1707H169.024V50.7317H171.463ZM169.024 50.7317V53.1707H166.585V50.7317H169.024ZM166.585 50.7317V53.1707H164.146V50.7317H166.585ZM164.146 50.7317V53.1707H161.707V50.7317H164.146ZM161.707 50.7317V53.1707H159.268V50.7317H161.707ZM171.463 53.1707V55.6098H169.024V53.1707H171.463ZM166.585 53.1707V55.6098H164.146V53.1707H166.585ZM164.146 53.1707V55.6098H161.707V53.1707H164.146ZM159.268 53.1707V55.6098H156.829V53.1707H159.268ZM156.829 53.1707V55.6098H154.39V53.1707H156.829ZM154.39 53.1707V55.6098H151.951V53.1707H154.39ZM151.951 53.1707V55.6098H149.512V53.1707H151.951ZM149.512 53.1707V55.6098H147.073V53.1707H149.512ZM147.073 53.1707V55.6098H144.634V53.1707H147.073ZM161.707 53.1707V55.6098H159.268V53.1707H161.707ZM169.024 53.1707V55.6098H166.585V53.1707H169.024ZM171.463 55.6098V58.0488H169.024V55.6098H171.463ZM169.024 55.6098V58.0488H166.585V55.6098H169.024ZM166.585 55.6098V58.0488H164.146V55.6098H166.585ZM164.146 55.6098V58.0488H161.707V55.6098H164.146ZM161.707 55.6098V58.0488H159.268V55.6098H161.707ZM159.268 55.6098V58.0488H156.829V55.6098H159.268ZM156.829 55.6098V58.0488H154.39V55.6098H156.829ZM154.39 55.6098V58.0488H151.951V55.6098H154.39ZM151.951 55.6098V58.0488H149.512V55.6098H151.951ZM149.512 55.6098V58.0488H147.073V55.6098H149.512ZM147.073 55.6098V58.0488H144.634V55.6098H147.073ZM147.073 58.0488V60.4878H144.634V58.0488H147.073ZM149.512 58.0488V60.4878H147.073V58.0488H149.512ZM151.951 58.0488V60.4878H149.512V58.0488H151.951ZM156.829 58.0488V60.4878H154.39V58.0488H156.829ZM159.268 58.0488V60.4878H156.829V58.0488H159.268ZM161.707 58.0488V60.4878H159.268V58.0488H161.707ZM164.146 58.0488V60.4878H161.707V58.0488H164.146ZM166.585 58.0488V60.4878H164.146V58.0488H166.585ZM169.024 58.0488V60.4878H166.585V58.0488H169.024ZM171.463 58.0488V60.4878H169.024V58.0488H171.463ZM154.39 58.0488V60.4878H151.951V58.0488H154.39ZM181.262 33.6585V36.0976H178.823V33.6585H181.262ZM183.701 33.6585V36.0976H181.262V33.6585H183.701ZM186.14 33.6585V36.0976H183.701V33.6585H186.14ZM188.579 33.6585V36.0976H186.14V33.6585H188.579ZM188.579 36.0976V38.5366H186.14V36.0976H188.579ZM191.018 36.0976V38.5366H188.579V36.0976H191.018ZM191.018 38.5366V40.9756H188.579V38.5366H191.018ZM191.018 33.6585V36.0976H188.579V33.6585H191.018ZM191.018 40.9756V43.4146H188.579V40.9756H191.018ZM191.018 43.4146V45.8537H188.579V43.4146H191.018ZM191.018 45.8537V48.2927H188.579V45.8537H191.018ZM191.018 48.2927V50.7317H188.579V48.2927H191.018ZM191.018 50.7317V53.1707H188.579V50.7317H191.018ZM191.018 53.1707V55.6098H188.579V53.1707H191.018ZM191.018 55.6098V58.0488H188.579V55.6098H191.018ZM191.018 58.0488V60.4878H188.579V58.0488H191.018ZM191.018 60.4878V62.9268H188.579V60.4878H191.018ZM188.579 60.4878V62.9268H186.14V60.4878H188.579ZM186.14 62.9268V65.3659H183.701V62.9268H186.14ZM183.701 62.9268V65.3659H181.262V62.9268H183.701ZM181.262 62.9268V65.3659H178.823V62.9268H181.262ZM181.262 60.4878V62.9268H178.823V60.4878H181.262ZM181.262 58.0488V60.4878H178.823V58.0488H181.262ZM181.262 55.6098V58.0488H178.823V55.6098H181.262ZM181.262 53.1707V55.6098H178.823V53.1707H181.262ZM183.701 53.1707V55.6098H181.262V53.1707H183.701ZM183.701 50.7317V53.1707H181.262V50.7317H183.701ZM183.701 48.2927V50.7317H181.262V48.2927H183.701ZM183.701 45.8537V48.2927H181.262V45.8537H183.701ZM183.701 43.4146V45.8537H181.262V43.4146H183.701ZM183.701 40.9756V43.4146H181.262V40.9756H183.701ZM183.701 38.5366V40.9756H181.262V38.5366H183.701ZM183.701 36.0976V38.5366H181.262V36.0976H183.701ZM181.262 36.0976V38.5366H178.823V36.0976H181.262ZM181.262 38.5366V40.9756H178.823V38.5366H181.262ZM181.262 40.9756V43.4146H178.823V40.9756H181.262ZM181.262 43.4146V45.8537H178.823V43.4146H181.262ZM181.262 45.8537V48.2927H178.823V45.8537H181.262ZM181.262 48.2927V50.7317H178.823V48.2927H181.262ZM181.262 50.7317V53.1707H178.823V50.7317H181.262ZM186.14 45.8537V48.2927H183.701V45.8537H186.14ZM186.14 43.4146V45.8537H183.701V43.4146H186.14ZM186.14 40.9756V43.4146H183.701V40.9756H186.14ZM186.14 38.5366V40.9756H183.701V38.5366H186.14ZM186.14 36.0976V38.5366H183.701V36.0976H186.14ZM188.579 45.8537V48.2927H186.14V45.8537H188.579ZM188.579 48.2927V50.7317H186.14V48.2927H188.579ZM188.579 43.4146V45.8537H186.14V43.4146H188.579ZM188.579 40.9756V43.4146H186.14V40.9756H188.579ZM188.579 38.5366V40.9756H186.14V38.5366H188.579ZM186.14 53.1707V55.6098H183.701V53.1707H186.14ZM186.14 50.7317V53.1707H183.701V50.7317H186.14ZM186.14 48.2927V50.7317H183.701V48.2927H186.14ZM188.579 50.7317V53.1707H186.14V50.7317H188.579ZM188.579 53.1707V55.6098H186.14V53.1707H188.579ZM188.579 55.6098V58.0488H186.14V55.6098H188.579ZM186.14 58.0488V60.4878H183.701V58.0488H186.14ZM186.14 60.4878V62.9268H183.701V60.4878H186.14ZM186.14 55.6098V58.0488H183.701V55.6098H186.14ZM183.701 55.6098V58.0488H181.262V55.6098H183.701ZM183.701 58.0488V60.4878H181.262V58.0488H183.701ZM183.701 60.4878V62.9268H181.262V60.4878H183.701ZM188.579 58.0488V60.4878H186.14V58.0488H188.579ZM186.14 65.3659V67.8049H183.701V65.3659H186.14ZM183.701 65.3659V67.8049H181.262V65.3659H183.701ZM188.579 65.3659V67.8049H186.14V65.3659H188.579ZM188.579 62.9268V65.3659H186.14V62.9268H188.579ZM191.018 62.9268V65.3659H188.579V62.9268H191.018ZM193.458 62.9268V65.3659H191.018V62.9268H193.458ZM193.458 65.3659V67.8049H191.018V65.3659H193.458ZM191.018 65.3659V67.8049H188.579V65.3659H191.018ZM195.897 65.3659V67.8049H193.458V65.3659H195.897ZM186.14 67.8049V70.2439H183.701V67.8049H186.14ZM188.579 67.8049V70.2439H186.14V67.8049H188.579ZM191.018 67.8049V70.2439H188.579V67.8049H191.018ZM193.458 67.8049V70.2439H191.018V67.8049H193.458ZM195.897 67.8049V70.2439H193.458V67.8049H195.897ZM198.336 67.8049V70.2439H195.897V67.8049H198.336ZM200.775 67.8049V70.2439H198.336V67.8049H200.775ZM203.214 67.8049V70.2439H200.775V67.8049H203.214ZM205.653 67.8049V70.2439H203.214V67.8049H205.653ZM208.092 67.8049V70.2439H205.653V67.8049H208.092ZM210.531 67.8049V70.2439H208.092V67.8049H210.531ZM212.97 67.8049V70.2439H210.531V67.8049H212.97ZM210.531 65.3659V67.8049H208.092V65.3659H210.531ZM208.092 65.3659V67.8049H205.653V65.3659H208.092ZM205.653 65.3659V67.8049H203.214V65.3659H205.653ZM203.214 65.3659V67.8049H200.775V65.3659H203.214ZM205.653 62.9268V65.3659H203.214V62.9268H205.653ZM208.092 62.9268V65.3659H205.653V62.9268H208.092ZM210.531 62.9268V65.3659H208.092V62.9268H210.531ZM212.97 62.9268V65.3659H210.531V62.9268H212.97ZM215.409 62.9268V65.3659H212.97V62.9268H215.409ZM215.409 65.3659V67.8049H212.97V65.3659H215.409ZM212.97 65.3659V67.8049H210.531V65.3659H212.97ZM217.848 62.9268V65.3659H215.409V62.9268H217.848ZM195.897 77.561V80H193.458V77.561H195.897ZM195.897 75.122V77.561H193.458V75.122H195.897ZM195.897 72.6829V75.122H193.458V72.6829H195.897ZM198.336 72.6829V75.122H195.897V72.6829H198.336ZM198.336 70.2439V72.6829H195.897V70.2439H198.336ZM200.775 70.2439V72.6829H198.336V70.2439H200.775ZM203.214 70.2439V72.6829H200.775V70.2439H203.214ZM203.214 72.6829V75.122H200.775V72.6829H203.214ZM203.214 75.122V77.561H200.775V75.122H203.214ZM203.214 77.561V80H200.775V77.561H203.214ZM200.775 77.561V80H198.336V77.561H200.775ZM198.336 77.561V80H195.897V77.561H198.336ZM198.336 75.122V77.561H195.897V75.122H198.336ZM200.775 72.6829V75.122H198.336V72.6829H200.775ZM200.775 75.122V77.561H198.336V75.122H200.775ZM205.653 72.6829V75.122H203.214V72.6829H205.653ZM205.653 70.2439V72.6829H203.214V70.2439H205.653ZM208.092 70.2439V72.6829H205.653V70.2439H208.092ZM210.531 70.2439V72.6829H208.092V70.2439H210.531ZM208.092 72.6829V75.122H205.653V72.6829H208.092ZM205.653 75.122V77.561H203.214V75.122H205.653ZM188.579 70.2439V72.6829H186.14V70.2439H188.579ZM191.018 70.2439V72.6829H188.579V70.2439H191.018ZM191.018 72.6829V75.122H188.579V72.6829H191.018ZM193.458 72.6829V75.122H191.018V72.6829H193.458ZM193.458 75.122V77.561H191.018V75.122H193.458ZM195.897 70.2439V72.6829H193.458V70.2439H195.897ZM193.458 70.2439V72.6829H191.018V70.2439H193.458ZM208.092 60.4878V62.9268H205.653V60.4878H208.092ZM208.092 58.0488V60.4878H205.653V58.0488H208.092ZM208.092 55.6098V58.0488H205.653V55.6098H208.092ZM208.092 53.1707V55.6098H205.653V53.1707H208.092ZM210.531 53.1707V55.6098H208.092V53.1707H210.531ZM212.97 53.1707V55.6098H210.531V53.1707H212.97ZM215.409 53.1707V55.6098H212.97V53.1707H215.409ZM217.848 53.1707V55.6098H215.409V53.1707H217.848ZM217.848 55.6098V58.0488H215.409V55.6098H217.848ZM217.848 58.0488V60.4878H215.409V58.0488H217.848ZM217.848 60.4878V62.9268H215.409V60.4878H217.848ZM215.409 60.4878V62.9268H212.97V60.4878H215.409ZM212.97 60.4878V62.9268H210.531V60.4878H212.97ZM210.531 60.4878V62.9268H208.092V60.4878H210.531ZM212.97 58.0488V60.4878H210.531V58.0488H212.97ZM215.409 58.0488V60.4878H212.97V58.0488H215.409ZM215.409 55.6098V58.0488H212.97V55.6098H215.409ZM212.97 55.6098V58.0488H210.531V55.6098H212.97ZM210.531 55.6098V58.0488H208.092V55.6098H210.531ZM210.531 58.0488V60.4878H208.092V58.0488H210.531ZM208.092 50.7317V53.1707H205.653V50.7317H208.092ZM208.092 48.2927V50.7317H205.653V48.2927H208.092ZM208.092 45.8537V48.2927H205.653V45.8537H208.092ZM208.092 43.4146V45.8537H205.653V43.4146H208.092ZM208.092 40.9756V43.4146H205.653V40.9756H208.092ZM208.092 38.5366V40.9756H205.653V38.5366H208.092ZM208.092 36.0976V38.5366H205.653V36.0976H208.092ZM208.092 33.6585V36.0976H205.653V33.6585H208.092ZM210.531 36.0976V38.5366H208.092V36.0976H210.531ZM210.531 33.6585V36.0976H208.092V33.6585H210.531ZM212.97 33.6585V36.0976H210.531V33.6585H212.97ZM215.409 33.6585V36.0976H212.97V33.6585H215.409ZM215.409 36.0976V38.5366H212.97V36.0976H215.409ZM215.409 38.5366V40.9756H212.97V38.5366H215.409ZM217.848 38.5366V40.9756H215.409V38.5366H217.848ZM217.848 40.9756V43.4146H215.409V40.9756H217.848ZM217.848 43.4146V45.8537H215.409V43.4146H217.848ZM217.848 45.8537V48.2927H215.409V45.8537H217.848ZM217.848 48.2927V50.7317H215.409V48.2927H217.848ZM217.848 50.7317V53.1707H215.409V50.7317H217.848ZM217.848 36.0976V38.5366H215.409V36.0976H217.848ZM217.848 33.6585V36.0976H215.409V33.6585H217.848ZM212.97 36.0976V38.5366H210.531V36.0976H212.97ZM212.97 38.5366V40.9756H210.531V38.5366H212.97ZM212.97 40.9756V43.4146H210.531V40.9756H212.97ZM212.97 43.4146V45.8537H210.531V43.4146H212.97ZM212.97 45.8537V48.2927H210.531V45.8537H212.97ZM212.97 48.2927V50.7317H210.531V48.2927H212.97ZM210.531 48.2927V50.7317H208.092V48.2927H210.531ZM210.531 50.7317V53.1707H208.092V50.7317H210.531ZM210.531 45.8537V48.2927H208.092V45.8537H210.531ZM210.531 43.4146V45.8537H208.092V43.4146H210.531ZM210.531 40.9756V43.4146H208.092V40.9756H210.531ZM210.531 38.5366V40.9756H208.092V38.5366H210.531ZM215.409 40.9756V43.4146H212.97V40.9756H215.409ZM215.409 43.4146V45.8537H212.97V43.4146H215.409ZM215.409 45.8537V48.2927H212.97V45.8537H215.409ZM215.409 48.2927V50.7317H212.97V48.2927H215.409ZM215.409 50.7317V53.1707H212.97V50.7317H215.409ZM212.97 50.7317V53.1707H210.531V50.7317H212.97ZM230.091 33.6585V36.0976H227.651V33.6585H230.091ZM232.53 33.6585V36.0976H230.091V33.6585H232.53ZM234.969 33.6585V36.0976H232.53V33.6585H234.969ZM237.408 33.6585V36.0976H234.969V33.6585H237.408ZM237.408 36.0976V38.5366H234.969V36.0976H237.408ZM239.847 36.0976V38.5366H237.408V36.0976H239.847ZM239.847 38.5366V40.9756H237.408V38.5366H239.847ZM239.847 33.6585V36.0976H237.408V33.6585H239.847ZM239.847 40.9756V43.4146H237.408V40.9756H239.847ZM239.847 43.4146V45.8537H237.408V43.4146H239.847ZM239.847 45.8537V48.2927H237.408V45.8537H239.847ZM239.847 48.2927V50.7317H237.408V48.2927H239.847ZM239.847 50.7317V53.1707H237.408V50.7317H239.847ZM239.847 53.1707V55.6098H237.408V53.1707H239.847ZM239.847 55.6098V58.0488H237.408V55.6098H239.847ZM239.847 58.0488V60.4878H237.408V58.0488H239.847ZM239.847 60.4878V62.9268H237.408V60.4878H239.847ZM237.408 60.4878V62.9268H234.969V60.4878H237.408ZM234.969 62.9268V65.3659H232.53V62.9268H234.969ZM232.53 62.9268V65.3659H230.091V62.9268H232.53ZM230.091 62.9268V65.3659H227.651V62.9268H230.091ZM230.091 60.4878V62.9268H227.651V60.4878H230.091ZM230.091 58.0488V60.4878H227.651V58.0488H230.091ZM230.091 55.6098V58.0488H227.651V55.6098H230.091ZM230.091 53.1707V55.6098H227.651V53.1707H230.091ZM232.53 53.1707V55.6098H230.091V53.1707H232.53ZM232.53 50.7317V53.1707H230.091V50.7317H232.53ZM232.53 48.2927V50.7317H230.091V48.2927H232.53ZM232.53 45.8537V48.2927H230.091V45.8537H232.53ZM232.53 43.4146V45.8537H230.091V43.4146H232.53ZM232.53 40.9756V43.4146H230.091V40.9756H232.53ZM232.53 38.5366V40.9756H230.091V38.5366H232.53ZM232.53 36.0976V38.5366H230.091V36.0976H232.53ZM230.091 36.0976V38.5366H227.651V36.0976H230.091ZM230.091 38.5366V40.9756H227.651V38.5366H230.091ZM230.091 40.9756V43.4146H227.651V40.9756H230.091ZM230.091 43.4146V45.8537H227.651V43.4146H230.091ZM230.091 45.8537V48.2927H227.651V45.8537H230.091ZM230.091 48.2927V50.7317H227.651V48.2927H230.091ZM230.091 50.7317V53.1707H227.651V50.7317H230.091ZM234.969 45.8537V48.2927H232.53V45.8537H234.969ZM234.969 43.4146V45.8537H232.53V43.4146H234.969ZM234.969 40.9756V43.4146H232.53V40.9756H234.969ZM234.969 38.5366V40.9756H232.53V38.5366H234.969ZM234.969 36.0976V38.5366H232.53V36.0976H234.969ZM237.408 45.8537V48.2927H234.969V45.8537H237.408ZM237.408 48.2927V50.7317H234.969V48.2927H237.408ZM237.408 43.4146V45.8537H234.969V43.4146H237.408ZM237.408 40.9756V43.4146H234.969V40.9756H237.408ZM237.408 38.5366V40.9756H234.969V38.5366H237.408ZM234.969 53.1707V55.6098H232.53V53.1707H234.969ZM234.969 50.7317V53.1707H232.53V50.7317H234.969ZM234.969 48.2927V50.7317H232.53V48.2927H234.969ZM237.408 50.7317V53.1707H234.969V50.7317H237.408ZM237.408 53.1707V55.6098H234.969V53.1707H237.408ZM237.408 55.6098V58.0488H234.969V55.6098H237.408ZM234.969 58.0488V60.4878H232.53V58.0488H234.969ZM234.969 60.4878V62.9268H232.53V60.4878H234.969ZM234.969 55.6098V58.0488H232.53V55.6098H234.969ZM232.53 55.6098V58.0488H230.091V55.6098H232.53ZM232.53 58.0488V60.4878H230.091V58.0488H232.53ZM232.53 60.4878V62.9268H230.091V60.4878H232.53ZM237.408 58.0488V60.4878H234.969V58.0488H237.408ZM234.969 65.3659V67.8049H232.53V65.3659H234.969ZM232.53 65.3659V67.8049H230.091V65.3659H232.53ZM237.408 65.3659V67.8049H234.969V65.3659H237.408ZM237.408 62.9268V65.3659H234.969V62.9268H237.408ZM239.847 62.9268V65.3659H237.408V62.9268H239.847ZM242.286 62.9268V65.3659H239.847V62.9268H242.286ZM242.286 65.3659V67.8049H239.847V65.3659H242.286ZM239.847 65.3659V67.8049H237.408V65.3659H239.847ZM244.725 65.3659V67.8049H242.286V65.3659H244.725ZM234.969 67.8049V70.2439H232.53V67.8049H234.969ZM237.408 67.8049V70.2439H234.969V67.8049H237.408ZM239.847 67.8049V70.2439H237.408V67.8049H239.847ZM242.286 67.8049V70.2439H239.847V67.8049H242.286ZM244.725 67.8049V70.2439H242.286V67.8049H244.725ZM247.164 67.8049V70.2439H244.725V67.8049H247.164ZM249.603 67.8049V70.2439H247.164V67.8049H249.603ZM252.042 67.8049V70.2439H249.603V67.8049H252.042ZM254.481 67.8049V70.2439H252.042V67.8049H254.481ZM256.92 67.8049V70.2439H254.481V67.8049H256.92ZM259.359 67.8049V70.2439H256.92V67.8049H259.359ZM261.798 67.8049V70.2439H259.359V67.8049H261.798ZM259.359 65.3659V67.8049H256.92V65.3659H259.359ZM256.92 65.3659V67.8049H254.481V65.3659H256.92ZM254.481 65.3659V67.8049H252.042V65.3659H254.481ZM252.042 65.3659V67.8049H249.603V65.3659H252.042ZM254.481 62.9268V65.3659H252.042V62.9268H254.481ZM256.92 62.9268V65.3659H254.481V62.9268H256.92ZM259.359 62.9268V65.3659H256.92V62.9268H259.359ZM261.798 62.9268V65.3659H259.359V62.9268H261.798ZM264.237 62.9268V65.3659H261.798V62.9268H264.237ZM264.237 65.3659V67.8049H261.798V65.3659H264.237ZM261.798 65.3659V67.8049H259.359V65.3659H261.798ZM266.676 62.9268V65.3659H264.237V62.9268H266.676ZM244.725 77.561V80H242.286V77.561H244.725ZM244.725 75.122V77.561H242.286V75.122H244.725ZM244.725 72.6829V75.122H242.286V72.6829H244.725ZM247.164 72.6829V75.122H244.725V72.6829H247.164ZM247.164 70.2439V72.6829H244.725V70.2439H247.164ZM249.603 70.2439V72.6829H247.164V70.2439H249.603ZM252.042 70.2439V72.6829H249.603V70.2439H252.042ZM252.042 72.6829V75.122H249.603V72.6829H252.042ZM252.042 75.122V77.561H249.603V75.122H252.042ZM252.042 77.561V80H249.603V77.561H252.042ZM249.603 77.561V80H247.164V77.561H249.603ZM247.164 77.561V80H244.725V77.561H247.164ZM247.164 75.122V77.561H244.725V75.122H247.164ZM249.603 72.6829V75.122H247.164V72.6829H249.603ZM249.603 75.122V77.561H247.164V75.122H249.603ZM254.481 72.6829V75.122H252.042V72.6829H254.481ZM254.481 70.2439V72.6829H252.042V70.2439H254.481ZM256.92 70.2439V72.6829H254.481V70.2439H256.92ZM259.359 70.2439V72.6829H256.92V70.2439H259.359ZM256.92 72.6829V75.122H254.481V72.6829H256.92ZM254.481 75.122V77.561H252.042V75.122H254.481ZM237.408 70.2439V72.6829H234.969V70.2439H237.408ZM239.847 70.2439V72.6829H237.408V70.2439H239.847ZM239.847 72.6829V75.122H237.408V72.6829H239.847ZM242.286 72.6829V75.122H239.847V72.6829H242.286ZM242.286 75.122V77.561H239.847V75.122H242.286ZM244.725 70.2439V72.6829H242.286V70.2439H244.725ZM242.286 70.2439V72.6829H239.847V70.2439H242.286ZM256.92 60.4878V62.9268H254.481V60.4878H256.92ZM256.92 58.0488V60.4878H254.481V58.0488H256.92ZM256.92 55.6098V58.0488H254.481V55.6098H256.92ZM256.92 53.1707V55.6098H254.481V53.1707H256.92ZM259.359 53.1707V55.6098H256.92V53.1707H259.359ZM261.798 53.1707V55.6098H259.359V53.1707H261.798ZM264.237 53.1707V55.6098H261.798V53.1707H264.237ZM266.676 53.1707V55.6098H264.237V53.1707H266.676ZM266.676 55.6098V58.0488H264.237V55.6098H266.676ZM266.676 58.0488V60.4878H264.237V58.0488H266.676ZM266.676 60.4878V62.9268H264.237V60.4878H266.676ZM264.237 60.4878V62.9268H261.798V60.4878H264.237ZM261.798 60.4878V62.9268H259.359V60.4878H261.798ZM259.359 60.4878V62.9268H256.92V60.4878H259.359ZM261.798 58.0488V60.4878H259.359V58.0488H261.798ZM264.237 58.0488V60.4878H261.798V58.0488H264.237ZM264.237 55.6098V58.0488H261.798V55.6098H264.237ZM261.798 55.6098V58.0488H259.359V55.6098H261.798ZM259.359 55.6098V58.0488H256.92V55.6098H259.359ZM259.359 58.0488V60.4878H256.92V58.0488H259.359ZM256.92 50.7317V53.1707H254.481V50.7317H256.92ZM256.92 48.2927V50.7317H254.481V48.2927H256.92ZM256.92 45.8537V48.2927H254.481V45.8537H256.92ZM256.92 43.4146V45.8537H254.481V43.4146H256.92ZM256.92 40.9756V43.4146H254.481V40.9756H256.92ZM256.92 38.5366V40.9756H254.481V38.5366H256.92ZM256.92 36.0976V38.5366H254.481V36.0976H256.92ZM256.92 33.6585V36.0976H254.481V33.6585H256.92ZM259.359 36.0976V38.5366H256.92V36.0976H259.359ZM259.359 33.6585V36.0976H256.92V33.6585H259.359ZM261.798 33.6585V36.0976H259.359V33.6585H261.798ZM264.237 33.6585V36.0976H261.798V33.6585H264.237ZM264.237 36.0976V38.5366H261.798V36.0976H264.237ZM264.237 38.5366V40.9756H261.798V38.5366H264.237ZM266.676 38.5366V40.9756H264.237V38.5366H266.676ZM266.676 40.9756V43.4146H264.237V40.9756H266.676ZM266.676 43.4146V45.8537H264.237V43.4146H266.676ZM266.676 45.8537V48.2927H264.237V45.8537H266.676ZM266.676 48.2927V50.7317H264.237V48.2927H266.676ZM266.676 50.7317V53.1707H264.237V50.7317H266.676ZM266.676 36.0976V38.5366H264.237V36.0976H266.676ZM266.676 33.6585V36.0976H264.237V33.6585H266.676ZM261.798 36.0976V38.5366H259.359V36.0976H261.798ZM261.798 38.5366V40.9756H259.359V38.5366H261.798ZM261.798 40.9756V43.4146H259.359V40.9756H261.798ZM261.798 43.4146V45.8537H259.359V43.4146H261.798ZM261.798 45.8537V48.2927H259.359V45.8537H261.798ZM261.798 48.2927V50.7317H259.359V48.2927H261.798ZM259.359 48.2927V50.7317H256.92V48.2927H259.359ZM259.359 50.7317V53.1707H256.92V50.7317H259.359ZM259.359 45.8537V48.2927H256.92V45.8537H259.359ZM259.359 43.4146V45.8537H256.92V43.4146H259.359ZM259.359 40.9756V43.4146H256.92V40.9756H259.359ZM259.359 38.5366V40.9756H256.92V38.5366H259.359ZM264.237 40.9756V43.4146H261.798V40.9756H264.237ZM264.237 43.4146V45.8537H261.798V43.4146H264.237ZM264.237 45.8537V48.2927H261.798V45.8537H264.237ZM264.237 48.2927V50.7317H261.798V48.2927H264.237ZM264.237 50.7317V53.1707H261.798V50.7317H264.237ZM261.798 50.7317V53.1707H259.359V50.7317H261.798ZM239.847 77.561V80H237.408V77.561H239.847ZM242.286 77.561V80H239.847V77.561H242.286ZM244.725 80V82.439H242.286V80H244.725ZM247.164 80V82.439H244.725V80H247.164ZM249.603 80V82.439H247.164V80H249.603ZM242.286 80V82.439H239.847V80H242.286ZM239.847 80V82.439H237.408V80H239.847ZM237.408 80V82.439H234.969V80H237.408ZM237.408 82.439V84.878H234.969V82.439H237.408ZM234.969 82.439V84.878H232.53V82.439H234.969ZM234.969 84.878V87.3171H232.53V84.878H234.969ZM232.53 84.878V87.3171H230.091V84.878H232.53ZM232.53 87.3171V89.7561H230.091V87.3171H232.53ZM232.53 89.7561V92.1951H230.091V89.7561H232.53ZM232.53 92.1951V94.6341H230.091V92.1951H232.53ZM234.969 92.1951V94.6341H232.53V92.1951H234.969ZM237.408 92.1951V94.6341H234.969V92.1951H237.408ZM237.408 89.7561V92.1951H234.969V89.7561H237.408ZM237.408 87.3171V89.7561H234.969V87.3171H237.408ZM234.969 87.3171V89.7561H232.53V87.3171H234.969ZM234.969 89.7561V92.1951H232.53V89.7561H234.969ZM239.847 87.3171V89.7561H237.408V87.3171H239.847ZM239.847 89.7561V92.1951H237.408V89.7561H239.847ZM242.286 87.3171V89.7561H239.847V87.3171H242.286ZM242.286 84.878V87.3171H239.847V84.878H242.286ZM244.725 84.878V87.3171H242.286V84.878H244.725ZM244.725 82.439V84.878H242.286V82.439H244.725ZM247.164 82.439V84.878H244.725V82.439H247.164ZM242.286 82.439V84.878H239.847V82.439H242.286ZM239.847 82.439V84.878H237.408V82.439H239.847ZM239.847 84.878V87.3171H237.408V84.878H239.847ZM237.408 84.878V87.3171H234.969V84.878H237.408Z" fill="#4F9BA1"/>
<rect x="83" y="56" width="20" height="3" fill="#4F9BA1"/>
<rect x="123" y="56" width="24" height="3" fill="#4F9BA1"/>
<g clip-path="url(#clip0_16_1025)">
<path d="M78.6316 58.75H78V63.9444H78.6316V58.75Z" fill="#4F9BA1"/>
<path d="M81.7895 59.0557H81.158V63.9446H81.7895V59.0557Z" fill="#4F9BA1"/>
<path d="M82.4211 63.3333H81.7896V63.9444H82.4211V63.3333Z" fill="#4F9BA1"/>
<path d="M82.4211 59.0557H81.7896V59.6668H82.4211V59.0557Z" fill="#4F9BA1"/>
<path d="M79.2632 57.2222H78.6316V65.4722H79.2632V57.2222Z" fill="#4F9BA1"/>
<path d="M81.1579 56.6111H79.2632V66.3889H81.1579V56.6111Z" fill="#4F9BA1"/>
<path d="M83.9999 56H80.842V59.0556H83.9999V56Z" fill="#4F9BA1"/>
<path d="M83.9999 63.9443H80.842V66.9999H83.9999V63.9443Z" fill="#4F9BA1"/>
</g>
<defs>
<clipPath id="clip0_16_1025">
<rect width="6" height="11" fill="white" transform="translate(78 56)"/>
</clipPath>
</defs>
</svg>
